<?xml version="1.0" encoding="UTF-8"?>
<svg width="150px" height="150px" viewBox="0 0 150 150" version="1.1" xmlns="http://www.w3.org/2000/svg" xmlns:xlink="http://www.w3.org/1999/xlink">
    <title>icon_chefedeplantao</title>
    <g id="icon_chefedeplantao" stroke="none" stroke-width="1" fill="none" fill-rule="evenodd">
        <rect fill="#FFFFFF" x="0" y="0" width="150" height="150"></rect>
        <g id="Group-10-Copy-3" transform="translate(23.291016, 4.987574)">
            <path d="M35.644935,21.6661139 C52.9192139,19.3910742 65.9409256,27.1784649 70.5110333,36.7263485 L70.5904342,36.8946306 L70.5904342,36.8946306 L70.6718013,37.0724211 L70.6718013,37.0724211 L70.7545278,37.2593603 L70.7545278,37.2593603 L70.8101343,37.3888916 L70.8101343,37.3888916 L70.8658955,37.5222228 L70.8658955,37.5222228 L70.9216316,37.6592473 L70.9216316,37.6592473 L71.0047952,37.8714759 L71.0047952,37.8714759 L71.0596818,38.0172676 L71.0596818,38.0172676 L71.1139139,38.1663798 L71.1139139,38.1663798 L71.1673118,38.3187059 C71.1761319,38.3443555 71.1849098,38.3701346 71.1936417,38.3960409 L71.2454511,38.5529883 L71.2454511,38.5529883 L71.2959767,38.7128832 L71.2959767,38.7128832 L71.3450388,38.8756193 C71.3611289,38.9303264 71.3769451,38.9854892 71.3924575,39.04109 L71.438053,39.2091888 C71.4678024,39.322107 71.4962164,39.4367062 71.5230554,39.5528444 L71.5621027,39.7281882 C71.9338619,41.4634033 71.9368712,43.517996 70.8018042,45.4361776 L73.4337959,47.2882647 L77.470975,51.5127278 L78.0898741,53.1274001 C78.3382974,52.9851238 78.5939647,52.8476747 78.8568761,52.7150529 C82.2980022,50.9792269 85.4653938,51.1468138 87.0942824,53.0632169 C87.3728025,53.3908986 87.5604089,53.9285585 87.6571017,54.6761967 L87.6746812,54.8235229 C87.6938661,54.9984624 87.7084155,55.1841084 87.7183293,55.3804609 L87.7256917,55.5513851 C87.7277674,55.6092338 87.7294647,55.6679565 87.7307835,55.7275532 L87.7336049,55.9089654 C87.73501,56.0623271 87.7340501,56.2211514 87.730725,56.3854382 L87.7255997,56.5852043 C87.7245563,56.6189356 87.7234183,56.6528855 87.7221857,56.6870538 L81.6076293,57.5261727 L80.2425611,58.7435581 L80.4014093,59.1579706 C81.7246195,58.3990497 83.2086749,57.9702503 84.7722429,57.9702503 C90.2675644,57.9702503 94.7224027,63.0850646 94.7224027,69.3945078 C94.7224027,73.1673379 93.1295179,76.5130131 90.6737726,78.5933572 C90.7770691,79.0202514 90.8802941,79.4551146 90.9833776,79.8974543 C93.4936739,82.7328866 99.278396,100.096101 93.4936739,114.620054 C88.2460827,127.795409 73.5430377,134.171571 56.8094516,130.961492 C45.7652847,128.84284 36.7468916,121.747636 29.7542721,109.675879 L29.5429946,109.308544 L29.4658936,108.79549 C27.4594817,110.55516 24.9444477,111.554637 21.9207916,111.793921 C14.5300518,112.378805 9.49224011,106.757834 9.04987804,101.455553 C8.73994844,97.7406459 9.29979631,94.7027474 10.7294216,92.3418574 C10.0810536,92.8765565 9.47225689,93.4428186 8.92810117,94.0387967 C-5.9894452,82.7958441 0.710740274,66.7747158 7.98649742,62.475173 C-1.48764541,54.368603 4.18599916,45.1024223 13.1813079,42.1593144 L13.4687831,42.0661989 L13.4687831,42.0661989 L13.749888,41.9769139 L13.749888,41.9769139 L14.0247168,41.8912243 L14.0247168,41.8912243 L14.2933635,41.8088951 L14.2933635,41.8088951 L14.5559222,41.729691 L14.5559222,41.729691 L14.8124869,41.653377 L14.8124869,41.653377 L15.3080106,41.5084788 L15.3080106,41.5084788 L16.555159,41.1494104 L16.555159,41.1494104 L16.7645728,41.0881689 L16.7645728,41.0881689 L16.9688862,41.0275839 L16.9688862,41.0275839 L17.1681933,40.9674201 L17.1681933,40.9674201 L17.3625882,40.9074425 L17.3625882,40.9074425 L17.5521649,40.8474159 C17.5833647,40.8373943 17.6143677,40.8273609 17.6451758,40.8173108 L17.8277016,40.7567699 C17.8577381,40.7466332 17.8875835,40.73647 17.91724,40.7262753 L18.0929266,40.6646911 L18.0929266,40.6646911 L18.2641712,40.6021175 L18.2641712,40.6021175 L18.431068,40.5383192 C19.8863966,39.9686672 20.8438534,39.2281693 21.5951848,37.587568 C21.5951848,37.5531193 21.5900256,37.4995921 21.5812254,37.4284224 L21.5559214,37.2391244 L21.5559214,37.2391244 L21.5221723,36.9939171 L21.5221723,36.9939171 L21.4968791,36.8011795 L21.4968791,36.8011795 L21.4706794,36.5862854 C21.0940934,33.352493 20.7890552,23.622648 35.644935,21.6661139 Z" id="Path" fill="#FFFFFF"></path>
            <path d="M21.3967588,86.4648844 C12.4338467,87.6887933 8.3182198,92.6856828 9.04987804,101.455553 C9.49224011,106.757834 14.5300518,112.378805 21.9207916,111.793921 C27.1508424,111.380029 30.8591468,108.691715 33.0457049,103.72898" id="Path-31" stroke="#000000" stroke-width="3.68524437" stroke-linecap="round" stroke-linejoin="round"></path>
            <path d="M24.635722,102.1259 C23.1955801,100.242818 22.4447147,98.3793851 22.3831257,96.5356017 C22.3215367,94.6918183 22.9462244,92.7778795 24.2571887,90.7937854 C20.7284883,92.685978 18.9964675,94.5999168 19.0611263,96.5356017 C19.1257851,98.4712867 20.9839837,100.334719 24.635722,102.1259 Z" id="Path-26-Copy-2" fill="#000000" transform="translate(21.847552, 96.459843) rotate(122.000000) translate(-21.847552, -96.459843) "></path>
            <path d="M76.4567086,123.170374 C75.5968462,121.60465 74.9674534,120.077387 74.5685302,118.588585 C74.182226,117.146878 74.1250497,115.481139 74.3970013,113.591367 L74.396914,113.591354 C74.4403933,113.28922 74.2307118,113.009045 73.9285774,112.965565 C73.7614892,112.94152 73.5925736,112.995153 73.4699608,113.111182 C71.5266133,114.950182 70.582129,116.683648 70.6365078,118.311581 C70.6952785,120.070994 72.4709752,121.858726 75.9635978,123.674778 L75.9635556,123.67486 C76.1441785,123.768778 76.3667379,123.69849 76.460656,123.517867 C76.5174486,123.408644 76.5159677,123.278279 76.4567086,123.170374 Z" id="Path-26-Copy-4" fill="#000000" transform="translate(73.849672, 118.139191) rotate(-75.000000) translate(-73.849672, -118.139191) "></path>
            <path d="M23.6387407,105.762158 C22.1985988,103.879076 21.4477334,102.015644 21.3861444,100.17186 C21.3245555,98.3280768 21.9492432,96.414138 23.2602075,94.4300438 C19.7315071,96.3222365 17.9994863,98.2361753 18.0641451,100.17186 C18.1288039,102.107545 19.9870024,103.970978 23.6387407,105.762158 Z" id="Path-26-Copy-3" fill="#000000"></path>
            <ellipse id="Oval-Copy-17" stroke="#000000" stroke-width="3.68524437" cx="53.2634035" cy="76.0279477" rx="12.5298309" ry="13.2668797"></ellipse>
            <path d="M81.230911,79.8974543 C82.4053924,80.9843923 84.2698068,80.8187654 84.7722429,80.8187654 C90.2675644,80.8187654 94.7224027,75.703951 94.7224027,69.3945078 C94.7224027,63.0850646 90.2675644,57.9702503 84.7722429,57.9702503 C79.2769213,57.9702503 74.7637735,63.2669684 74.7637735,69.5764117" id="Oval-Copy-18" stroke="#000000" stroke-width="3.68524437"></path>
            <path d="M54.6770785,71.455735 C56.7012967,70.9510407 58.4719757,71.0622073 58.6320007,71.7040326 C58.7920257,72.3458579 57.2807985,73.2752956 55.2565803,73.7799899 L55.3359242,73.7592619 C55.6549671,74.3966603 55.8430745,75.1804891 55.8430745,76.0279477 C55.8430745,78.1650172 54.646868,79.8974543 53.1712724,79.8974543 C51.6956768,79.8974543 50.4994702,78.1650172 50.4994702,76.0279477 C50.4994702,74.9042784 50.8301791,73.8924757 51.3583239,73.1855558 C51.451698,73.0035527 51.6410918,72.8101678 51.9067787,72.6176499 C52.0098832,72.5380756 52.1162151,72.467747 52.2259986,72.4075917 C52.8340847,72.0452669 53.6952355,71.7005359 54.6770785,71.455735 Z" id="Combined-Shape-Copy-4" fill="#000000"></path>
            <path d="M84.8960823,65.9278684 C86.9203005,65.4231741 88.6909795,65.5343408 88.8510045,66.1761661 C89.0110296,66.8179913 87.4998024,67.7474291 85.4755842,68.2521234 L85.5549281,68.2313953 C85.873971,68.8687937 86.0620784,69.6526225 86.0620784,70.5000811 C86.0620784,72.6371506 84.8658718,74.3695877 83.3902762,74.3695877 C81.9146806,74.3695877 80.718474,72.6371506 80.718474,70.5000811 C80.718474,69.3764118 81.049183,68.3646091 81.5773278,67.6576892 C81.6707019,67.4756862 81.8600956,67.2823012 82.1257826,67.0897833 C82.228887,67.0102091 82.335219,66.9398804 82.4450025,66.8797252 C83.0530885,66.5174004 83.9142393,66.1726694 84.8960823,65.9278684 Z" id="Combined-Shape-Copy-5" fill="#000000"></path>
            <path d="M68.3578023,85.3049303 C72.8550338,86.8515358 76.2339052,86.8515358 78.4944165,85.3049303 C80.7549278,83.7583249 81.5829294,81.4977243 80.9784212,78.5231287 C80.7586926,76.9412509 78.8207404,74.6911334 77.5005401,73.3246022 C75.2902122,71.0367055 73.1915444,68.3951244 73.4891,65.6634829" id="Path-31-Copy" stroke="#000000" stroke-width="3.68524437" stroke-linecap="round" stroke-linejoin="round"></path>
            <path d="M65.1577295,72.6178624 C67.5695372,67.1998551 70.5698165,65.5989452 74.1585674,67.8151326" id="Path-32" stroke="#000000" stroke-width="3.68524437"></path>
            <path d="M71.7139604,65.4419568 C71.4973699,59.4687034 73.8783418,55.2264021 78.8568761,52.7150529 C82.2980022,50.9792269 85.4653938,51.1468138 87.0942824,53.0632169 C87.5794465,53.6340172 87.7887476,54.8419628 87.7221857,56.6870538 L81.6076293,57.5261727 L75.4741596,62.9969821 L73.5691597,65.6115473 L71.7139604,65.4419568 Z" id="Path-33" fill="#000000"></path>
            <path d="M40.0208588,72.4439211 C39.8741488,66.3075551 42.2900609,61.9836975 47.2685951,59.4723482 C48.8878504,58.6555385 51.9282055,57.849059 54.5715466,58.1416256 C57.5456461,58.4708008 59.1544898,58.9270687 60.9528542,61.0256118 C61.3060243,61.4377322 61.9206687,63.0068156 61.4968973,63.8413146 C61.3592015,64.1124679 60.2836475,63.9648058 58.2702354,63.3983286 L51.3425279,61.8888674 L43.2535593,67.1604775 L41.8760581,72.6135116 L40.0208588,72.4439211 Z" id="Path-33-Copy" fill="#000000"></path>
            <path d="M29.5429946,109.308544 C36.5649085,121.60379 45.6537275,128.82144 56.8094516,130.961492 C73.5430377,134.171571 88.2460827,127.795409 93.4936739,114.620054 C99.278396,100.096101 93.4936739,82.7328866 90.9833776,79.8974543" id="Path-34" stroke="#000000" stroke-width="3.68524437"></path>
            <path d="M21.5951848,86.4648844 C23.2404143,89.0714717 24.8856437,91.678059 26.5308732,94.2846463 C27.5459294,95.8928309 29.6179953,96.4645357 31.3140908,95.6043865 L35.5184042,93.4722325 C37.333613,92.5516619 38.0588751,90.3338791 37.1383163,88.5186642 C37.0625598,88.3692829 36.9767074,88.22524 36.8813563,88.0875374 C33.6456668,83.4146723 31.4769694,79.5810396 30.3752642,76.5866393 C33.2830402,74.8269462 39.0129623,70.6662181 31.0050315,63.6190715 C25.2920914,58.5915648 32.3465415,51.8066498 39.1580809,51.369429 C48.3638555,50.7785264 54.6488559,53.3225764 64.4644712,49.9330495 C74.2800866,46.5435226 71.8391488,39.5010517 70.5110333,36.7263485 C65.9409256,27.1784649 52.9192139,19.3910742 35.644935,21.6661139 C18.3706561,23.9411536 21.5951848,36.7263485 21.5951848,37.587568 C20.1775784,40.6830422 18.0261683,40.5741608 13.1813079,42.1593144 C4.18599916,45.1024223 -1.48764541,54.368603 7.98649742,62.475173 C0.710740274,66.7747158 -5.9894452,82.7958441 8.92810117,94.0387967 C13.2360006,89.3206365 21.5951848,86.4648844 21.5951848,86.4648844 Z" id="Path-35" fill="#000000"></path>
            <path d="M84.1396165,92.948112 C83.442739,97.5052492 82.0603959,103.579304 79.9925874,111.170275 C75.4508864,112.449785 64.5210868,113.334933 55.8430745,97.1219264 C58.967295,97.7675981 76.1227088,98.5806152 84.1396165,92.948112 Z" id="Path-36" stroke="#000000" stroke-width="3.68524437" stroke-linecap="round" stroke-linejoin="round"></path>
            <path d="M81.9011822,103.015883 C81.5458108,104.465559 80.9096126,107.18369 79.9925874,111.170275 C75.4508864,112.449785 65.5443698,113.556796 56.8663575,97.3437893 C62.2548082,103.848321 71.2605564,106.92802 81.9011822,103.015883 Z" id="Path-36-Copy-2" fill="#000000"></path>
            <path d="M71.7004155,45.7934073 C76.0168154,49.6062876 78.4318352,52.6297572 78.9454748,54.8638161" id="Path-38" stroke="#000000" stroke-width="3.68524437"></path>
            <path d="M32.2683008,74.7225756 C35.8574745,78.755079 38.2724943,81.7785486 39.5133601,83.7929844" id="Path-38-Copy" stroke="#000000" stroke-width="3.68524437" transform="translate(35.890830, 79.257780) rotate(-89.000000) translate(-35.890830, -79.257780) "></path>
            <path d="M10.391184,91.8560805 C8.91036698,82.8799128 33.0528899,51.4387808 49.4340941,46.7244639 C47.1029637,43.8400319 45.6436094,41.8551277 45.0560312,40.7697511 C33.078455,43.6095117 6.20264962,72.3427033 4.8287531,85.7938453 C5.78491152,88.4570075 7.63905514,90.4777526 10.391184,91.8560805 Z" id="Path-39" stroke="#000000" stroke-width="3.68524437" fill="#FFFFFF" stroke-linejoin="round"></path>
            <ellipse id="Oval-Copy-2" stroke="#000000" stroke-width="3.68524437" fill="#FFFFFF" transform="translate(58.918538, 28.311049) rotate(-11.000000) translate(-58.918538, -28.311049) " cx="58.918538" cy="28.3110491" rx="17.1363863" ry="23.3091706"></ellipse>
            <ellipse id="Oval-Copy-3" stroke="#000000" stroke-width="2.21114662" fill="#FFFFFF" transform="translate(59.099415, 28.346208) rotate(-11.000000) translate(-59.099415, -28.346208) " cx="59.0994148" cy="28.346208" rx="1.94656498" ry="2.57967106"></ellipse>
            <path d="M57.8397085,19.0878011 C55.7347099,17.3147218 54.7639274,14.9297751 54.9273611,11.9329609 C55.0907947,8.93614679 56.4170864,6.43158152 58.9062359,4.41926515 C55.6822477,5.99116746 54.0244196,8.49804231 53.9327515,11.9398897 C53.8410835,15.3817371 55.1434025,17.7643742 57.8397085,19.0878011 Z" id="Path-26-Copy-5" fill="#000000" transform="translate(56.417233, 11.753533) rotate(81.000000) translate(-56.417233, -11.753533) "></path>
            <path d="M62.9454246,51.3052359 C60.840426,49.5321567 59.8696435,47.1472099 60.0330772,44.1503958 C60.1965109,41.1535816 61.5228025,38.6490164 64.011952,36.6367 C60.7879638,38.2086023 59.1301357,40.7154772 59.0384677,44.1573246 C58.9467996,47.599172 60.2491186,49.9818091 62.9454246,51.3052359 Z" id="Path-26-Copy-8" fill="#000000" transform="translate(61.522949, 43.970968) rotate(-100.000000) translate(-61.522949, -43.970968) "></path>
            <path d="M57.8174518,20.0122332 C56.2591099,18.6758564 55.5404344,16.8783127 55.6614252,14.6196021 C55.7824161,12.3608915 56.7642769,10.4731909 58.6070078,8.95650012 C56.2202719,10.1412491 54.9929727,12.0306905 54.9251104,14.6248244 C54.8572481,17.2189583 55.8213619,19.0147612 57.8174518,20.0122332 Z" id="Path-26-Copy-6" fill="#000000" transform="translate(56.764386, 14.484367) rotate(81.000000) translate(-56.764386, -14.484367) "></path>
            <path d="M62.1812563,46.7744755 C60.6229144,45.4380987 59.9042389,43.640555 60.0252297,41.3818444 C60.1462206,39.1231338 61.1280814,37.2354331 62.9708123,35.7187424 C60.5840764,36.9034913 59.3567772,38.7929327 59.2889149,41.3870667 C59.2210526,43.9812006 60.1851664,45.7770035 62.1812563,46.7744755 Z" id="Path-26-Copy-9" fill="#000000" transform="translate(61.128190, 41.246609) rotate(-100.000000) translate(-61.128190, -41.246609) "></path>
            <path d="M58.0148408,21.3020688 C56.8460844,20.2997862 56.3070777,18.9516284 56.3978209,17.2575955 C56.488564,15.5635625 57.2249597,14.147787 58.6070078,13.0102689 C56.8169559,13.8988306 55.8964815,15.3159117 55.8455848,17.2615121 C55.794688,19.2071126 56.5177733,20.5539648 58.0148408,21.3020688 Z" id="Path-26-Copy-7" fill="#000000" transform="translate(57.225041, 17.156169) rotate(81.000000) translate(-57.225041, -17.156169) "></path>
            <path d="M61.410775,42.7291532 C60.2420186,41.7268706 59.7030119,40.3787128 59.7937551,38.6846798 C59.8844982,36.9906469 60.6208938,35.5748714 62.002942,34.4373533 C60.2128901,35.325915 59.2924157,36.7429961 59.2415189,38.6885965 C59.1906222,40.634197 59.9137075,41.9810492 61.410775,42.7291532 Z" id="Path-26-Copy-10" fill="#000000" transform="translate(60.620975, 38.583253) rotate(-100.000000) translate(-60.620975, -38.583253) "></path>
        </g>
    </g>
</svg>