<?xml version="1.0" encoding="UTF-8"?>
<svg width="150px" height="150px" viewBox="0 0 150 150" version="1.1" xmlns="http://www.w3.org/2000/svg" xmlns:xlink="http://www.w3.org/1999/xlink">
    <title>icon_megatroca</title>
    <g id="icon_megatroca" stroke="none" stroke-width="1" fill="none" fill-rule="evenodd">
        <g id="Group-17">
            <rect id="Rectangle" fill="#007AFF" x="0" y="0" width="150" height="150"></rect>
            <path d="M134.59893,61.0390607 C134.59626,59.2540122 134.07154,57.4435776 132.91128,55.9511381 L123.601165,44.030328 C122.041691,42.0488708 119.6691,41.0401046 117.297844,41.0360963 C115.886574,41.0360963 114.449935,41.3981832 113.180191,42.1904989 L104.102395,47.8422616 C103.147751,48.4515296 101.510837,48.8697333 99.9300001,48.8590444 C98.7016471,48.8643889 97.5146841,48.6185439 96.7309415,48.2310708 L87.8414037,43.9221027 C86.407435,43.2313317 84.8092408,42.9480756 83.2017005,42.9454033 C80.8931978,42.9560922 78.5553215,43.5239407 76.6767424,44.826652 L75.6393181,45.5548342 C74.8101798,45.1406388 73.5431069,44.509993 72.107803,43.7951719 C70.3867735,42.9507478 68.3626613,42.6100387 66.3185216,42.6033581 C64.4719865,42.6087026 62.6254513,42.8932949 61.0045594,43.5787214 L54.9495798,46.1641022 C53.964227,46.5916588 52.3967417,46.8709066 50.8399377,46.864226 C49.2831337,46.8709066 47.7183187,46.5916588 46.7329659,46.1641022 L40.6726456,43.5773853 C39.5671279,43.105737 38.3855056,42.9039838 37.2145647,42.9026477 C35.8660467,42.9039838 34.5255396,43.1698705 33.2798294,43.6749216 C32.0354543,44.182645 30.8805354,44.932205 29.9606057,45.9610129 L18.9267907,58.326749 C17.7037783,59.6935938 17.0962776,61.4145088 17.0989305,63.1087015 C17.0962776,65.128906 17.9601303,67.1557911 19.6264179,68.5760804 L29.9192156,77.363703 L25.0365121,82.4609783 C23.6906644,83.8665704 23.0204109,85.68903 23.0204109,87.491448 C23.0177405,89.4087717 23.7787854,91.3448011 25.2861882,92.7704348 L26.2768817,93.7123953 C27.210163,94.598239 28.3317027,95.1620791 29.505314,95.4627048 C28.9165056,96.5462933 28.5947305,97.7340988 28.5974009,98.9245765 C28.5947305,100.843236 29.3557754,102.77793 30.8605079,104.204899 L31.8512013,105.149532 C33.2651425,106.490991 35.098326,107.159048 36.9048061,107.157712 C37.8754721,107.159048 38.8474732,106.963975 39.760727,106.581846 C40.0811669,107.883222 40.7434095,109.120463 41.7848392,110.109188 L42.778203,111.055157 C44.1921442,112.396615 46.0226573,113.064672 47.8318078,113.063336 C49.245749,113.064672 50.666366,112.647805 51.8893784,111.838119 C52.247203,112.98985 52.8600444,114.081455 53.7933257,114.968635 L54.7866895,115.914604 C56.1979604,117.256062 58.0311438,117.924119 59.8376239,117.922783 C61.7615987,117.924119 63.7042658,117.167879 65.1395696,115.668759 L69.4548274,111.159373 L75.317543,116.589341 C76.7208029,117.892052 78.5219423,118.540068 80.3003839,118.536096 C82.2537324,118.540068 84.2244379,117.757105 85.6624121,116.216565 L86.5983638,115.213144 C87.4061394,114.344669 87.9335302,113.317198 88.2392833,112.244298 L90.5104013,114.341997 C91.9163315,115.639364 93.7148006,116.284707 95.4905719,116.283371 C97.4465907,116.284707 99.4226369,115.501744 100.861946,113.959869 L101.792557,112.957783 C102.867366,111.808725 103.472197,110.385763 103.65912,108.932071 C104.25861,109.085724 104.86611,109.189941 105.478952,109.189941 C107.43497,109.189941 109.405676,108.408314 110.84632,106.867775 L111.779602,105.865689 C113.084059,104.466778 113.73295,102.672377 113.73028,100.903361 C113.73028,100.354219 113.651505,99.8077479 113.530005,99.2679578 C115.152232,99.0528434 116.725058,98.3286696 117.921367,97.0433278 L118.857319,96.0399061 C120.161776,94.6409946 120.807997,92.8465933 120.807997,91.0762421 C120.810667,89.1281878 120.025589,87.1627639 118.476796,85.7304496 L116.726393,84.1124154 L132.524082,66.6333705 C133.942029,65.0594281 134.59626,63.0338791 134.59893,61.0390607 Z M28.0433068,89.892445 C27.3570313,89.2430936 27.017899,88.3786277 27.0152287,87.491448 C27.017899,86.6590489 27.3156411,85.8466915 27.9284825,85.2066928 L37.9288787,74.7636249 C38.5804399,74.0835428 39.4496332,73.7428337 40.3415244,73.7414976 C41.1760034,73.7428337 41.99179,74.0434594 42.6366754,74.6513913 L43.6246985,75.5946879 C43.6246985,75.5946879 44.647436,77.1085052 44.6501063,77.9970211 C44.647436,78.6624059 44.447161,79.3104212 44.0586276,79.8715892 C44.0252484,79.904992 33.2651425,91.1270145 33.2651425,91.1270145 C32.6936913,91.5318571 32.0180971,91.7402909 31.3304864,91.7429631 C30.4933371,91.7402909 29.6748801,91.4410013 29.0353354,90.8344055 L28.0433068,89.892445 Z M36.9074764,103.178764 C36.0703271,103.177428 35.2545405,102.876802 34.6123254,102.270206 L33.6189616,101.325574 L33.6162913,101.324237 C32.9353564,100.677558 32.5935538,99.8104201 32.5935538,98.9232403 C32.5935538,98.0908413 32.8939663,97.2784839 33.5041373,96.6384852 C33.5041373,96.6384852 46.8344385,82.7522512 46.9465925,82.6186398 C47.5834669,82.0053634 48.4045942,81.6887044 49.2524248,81.6873682 C50.0895742,81.6887044 50.9053608,81.9879939 51.5475758,82.5959258 L52.5409396,83.5418946 L52.5409396,83.5418946 C53.2245448,84.1885739 53.5636771,85.0543758 53.5663474,85.9428917 C53.5636771,86.7752908 53.2632647,87.5889843 52.6530936,88.228983 L39.3174518,102.159309 C38.6672257,102.836719 37.7993676,103.176092 36.9074764,103.178764 Z M47.8344781,109.084388 C46.9973288,109.083052 46.1815421,108.782426 45.5393271,108.174494 L44.543293,107.229862 C43.8596878,106.581846 43.5178852,105.716045 43.5178852,104.828865 C43.5178852,104.085985 43.7702317,103.36582 44.2535619,102.765905 L53.5369738,93.0697244 C54.1631668,92.5045481 54.9482446,92.2065947 55.761361,92.2065947 C56.5985103,92.2079308 57.4142969,92.5072204 58.056512,93.1151523 L59.0525461,94.0611211 L59.0525461,94.0611211 C59.733481,94.7078003 60.0752835,95.5736023 60.0779539,96.460782 C60.0752835,97.2945172 59.7722008,98.1082107 59.1647001,98.7468733 L50.2431183,108.063597 C49.5942274,108.742343 48.7263693,109.081716 47.8344781,109.084388 Z M62.2489344,112.923044 C61.6000436,113.60179 60.7308502,113.941163 59.8389591,113.943835 C59.0018098,113.942499 58.1860231,113.641873 57.5438081,113.033942 L56.5504443,112.089309 C55.8695094,111.44263 55.5277068,110.575492 55.5250365,109.688312 C55.5277068,108.854577 55.8281193,108.040883 56.4382903,107.403557 L62.068687,101.520646 C62.7202482,100.8419 63.5894415,100.501191 64.4813326,100.499855 C65.3158116,100.501191 66.1342686,100.800481 66.7764836,101.409749 L67.7725178,102.354381 L67.7725178,102.354381 C68.4534526,103.001061 68.7925849,103.866863 68.7952552,104.754042 C68.7925849,105.587778 68.4921724,106.401471 67.8820014,107.040134 L62.2489344,112.923044 Z M115.931969,93.334275 L114.998688,94.3363606 C114.347127,95.0338122 113.463247,95.3865463 112.558004,95.3878824 C111.736876,95.3865463 110.933106,95.0979456 110.294897,94.5073832 L94.5666368,79.951756 L91.8469028,82.8658209 L108.682016,98.4729699 C109.382978,99.1223214 109.735462,100.004157 109.740803,100.904698 C109.735462,101.725072 109.445731,102.524068 108.854252,103.160058 L107.923641,104.162144 C107.27208,104.859595 106.3882,105.210993 105.482957,105.213666 C104.66183,105.210993 103.855389,104.921057 103.22252,104.334503 L87.4902549,89.7788753 L84.7731913,92.6929402 L98.7350262,105.613164 C99.4079501,106.258507 99.752423,107.117628 99.752423,107.999464 C99.752423,108.817165 99.4626919,109.617498 98.8712132,110.252152 L97.9379319,111.254238 C97.289041,111.951689 96.4024905,112.304423 95.4945774,112.307095 C94.6707797,112.304423 93.8670096,112.014486 93.2314704,111.427932 L79.297674,98.5544729 L79.2950037,98.5544729 L79.2923333,98.5518006 L76.5806104,101.47121 L76.5832807,101.473882 L76.5832807,101.473882 L76.6353522,101.523318 L83.6142669,107.968733 C84.2324489,108.604723 84.5528889,109.419753 84.5555592,110.262841 C84.5528889,111.076534 84.2658281,111.872858 83.6743494,112.507513 L82.7410681,113.510934 C82.0895069,114.208386 81.2082971,114.558448 80.3057246,114.56112 C79.4845973,114.558448 78.6808271,114.269847 78.0452879,113.680621 L71.9689457,108.050236 C72.4976716,107.012075 72.7927434,105.885731 72.7927434,104.755378 C72.7954137,102.838055 72.0343689,100.904698 70.5296363,99.4763916 L69.5336022,98.5304228 C68.1223313,97.1903003 66.2918182,96.5209072 64.4853381,96.5235794 C64.3451456,96.5235794 64.203618,96.5556461 64.0660959,96.5636628 C64.0660959,96.53026 64.0741069,96.495521 64.0741069,96.4621181 C64.0767772,94.5447944 61.8109998,91.180459 61.8109998,91.180459 L60.8176361,90.2371625 C59.7615194,89.2350769 58.4730839,88.6097755 57.1325768,88.358586 C57.4089563,87.5756232 57.5651707,86.7605935 57.5651707,85.9442278 C57.5651707,84.0269041 56.8067962,82.0922108 55.3020637,80.6652409 L54.3086999,79.7192722 C52.8947587,78.3778136 51.0642456,77.7084204 49.2577655,77.7097565 C49.0468092,77.7097565 48.8385233,77.7525122 48.6289021,77.7712178 C48.57149,75.9300525 47.8304726,74.0902234 46.3884929,72.7193703 L46.3884929,72.7180342 L45.3977995,71.7760737 C43.9838583,70.433279 42.1533452,69.7638859 40.346865,69.765222 C38.42022,69.7638859 36.4802232,70.5201265 35.0449193,72.0192465 L32.6843452,74.484377 L22.227322,65.5591347 C21.4756234,64.9151277 21.1004416,64.0252757 21.0977713,63.1113737 C21.1004416,62.3457803 21.3607991,61.5962203 21.9162283,60.9735911 L32.9500433,48.607855 C33.3879778,48.116165 34.0355335,47.671239 34.7939081,47.3625966 C35.5522826,47.0539542 36.4134649,46.8842677 37.2185702,46.8856039 C37.9195326,46.8856039 38.5777696,47.0125347 39.1038251,47.2396741 L45.161475,49.826391 C46.8691528,50.5465565 48.8518749,50.8418378 50.8439432,50.8485183 C52.8386817,50.8418378 54.8187335,50.5465565 56.5264113,49.826391 L62.5813909,47.2410102 C63.5146722,46.8334954 64.9232727,46.5809698 66.3238622,46.586115 C67.8726552,46.5769615 69.4241186,46.8976289 70.3240207,47.3572521 C70.8954719,47.6418444 71.4375495,47.9117395 71.9409072,48.1642651 L65.7657627,52.5079721 C63.7817054,53.9042113 62.7122372,56.124833 62.7149075,58.3654963 C62.7122372,59.848583 63.1822157,61.358392 64.1381949,62.6397254 L64.1355245,62.6370532 L64.9513112,63.7340029 C66.5001042,65.7942908 68.9154202,66.8538293 71.329401,66.8591738 C72.6926059,66.8591738 74.0811789,66.5144563 75.3188782,65.7715769 L79.0119484,63.5522913 C79.7649822,63.091332 80.902544,62.8000591 82.0788256,62.8054036 C83.4607228,62.7973869 84.8533013,63.2062378 85.6904506,63.8221864 L95.9071438,71.1521084 C98.1809322,72.7821677 101.884684,75.8057939 103.936834,77.7084204 L115.762403,88.6498589 C116.463365,89.3005465 116.815849,90.1783735 116.81852,91.0802505 C116.817185,91.8979523 116.524783,92.6982847 115.931969,93.334275 Z M129.558677,63.9731673 L113.805049,81.4054482 L106.652563,74.7890111 C104.412154,72.7193703 100.717748,69.7010885 98.2396795,67.9200484 L88.0256566,60.5901264 C86.2939458,59.3622375 84.1737016,58.8318002 82.0774904,58.8237835 C80.2937081,58.8291279 78.4965742,59.2179372 76.9451108,60.1425281 L73.2547109,62.3618137 C72.6886004,62.7025228 72.0210172,62.8762176 71.3280658,62.8775537 C70.0890314,62.8815621 68.8486619,62.3030246 68.1570457,61.3610642 L67.3439293,60.2654506 L67.341259,60.2627784 C66.9086651,59.6788965 66.707055,59.0242006 66.7043846,58.361488 C66.7097253,57.3594024 67.1716929,56.3867113 68.0662544,55.7547294 L78.9852451,48.0774177 C79.9292077,47.3933272 81.608847,46.9136623 83.2043708,46.9256873 C84.3125589,46.9203428 85.3713459,47.1434739 86.0963412,47.5015525 L94.985879,51.8105205 C96.5012929,52.5387027 98.211641,52.8366561 99.9326705,52.8406645 C102.143706,52.8299756 104.378775,52.3489745 106.219969,51.2172858 L115.300436,45.564187 C115.879898,45.2021001 116.575519,45.0150345 117.300515,45.0150345 C118.526198,45.0123719 119.754551,45.5681953 120.450172,46.4754168 L129.760288,58.396227 C130.297024,59.0789813 130.608122,60.0423196 130.608122,61.0403968 C130.609453,62.1573882 130.215579,63.255674 129.558677,63.9731673 Z" id="Shape" stroke="#FFFFFF" stroke-width="1.25" fill="#FFFFFF" fill-rule="nonzero"></path>
        </g>
    </g>
</svg>