<?xml version="1.0" encoding="UTF-8"?>
<svg width="150px" height="150px" viewBox="0 0 150 150" version="1.1" xmlns="http://www.w3.org/2000/svg" xmlns:xlink="http://www.w3.org/1999/xlink">
    <title>icon_quotas</title>
    <defs>
        <linearGradient x1="50%" y1="0%" x2="50%" y2="100%" id="linearGradient-1">
            <stop stop-color="#9600AF" offset="0%"></stop>
            <stop stop-color="#A019FF" offset="100%"></stop>
        </linearGradient>
    </defs>
    <g id="icon_quotas" stroke="none" stroke-width="1" fill="none" fill-rule="evenodd">
        <rect id="Rectangle-2" fill="url(#linearGradient-1)" x="0" y="0" width="150" height="150"></rect>
        <path d="M104.757147,68.7319677 C101.226359,53.1748083 86.163269,42.4920648 71.2387594,44.9262602 C54.1210638,47.7159445 43.0707809,61.7487192 44.8783518,78.6555315 C46.3063327,92.0677069 57.3505903,104.220608 72.6305889,105.287075 C80.7405566,105.853447 88.9228271,105.510008 97.0749715,105.413605 C101.256485,105.365403 103.883488,102.99146 105.094561,98.7316179 C105.123598,98.6333564 105.190964,98.3377921 105.190964,98.0507663 C105.341595,89.8624705 105.859766,81.6741747 105.215065,73.485879 M94.1165806,111.607547 C86.9827011,111.559345 79.8427964,111.716002 72.7149422,111.517169 C62.5865204,111.227957 53.843903,106.871712 47.5415061,99.4666967 C36.232138,86.1870765 34.954788,68.8825986 44.8120742,54.4039565 C58.1519467,34.8159141 84.7172124,33.381908 100.840744,49.0234207 C101.395066,49.5656919 101.979514,50.077837 102.551911,50.6020325 C109.613488,59.1337668 112.258566,69.0211791 111.776547,79.9509572 C111.559639,84.9398527 111.607841,89.9468238 111.770522,94.9357192 C111.999481,101.955119 109.185696,107.142847 103.009829,110.510954 C100.141817,111.637674 97.1352238,111.631648 94.1165806,111.607547 Z" id="Fill-1" fill="#FFFFFF"></path>
    </g>
</svg>