<?xml version="1.0" encoding="UTF-8"?>
<svg width="150px" height="150px" viewBox="0 0 150 150" version="1.1" xmlns="http://www.w3.org/2000/svg" xmlns:xlink="http://www.w3.org/1999/xlink">
    <title>icon_psiapp</title>
    <g id="icon_psiapp" stroke="none" stroke-width="1" fill="none" fill-rule="evenodd">
        <rect id="Rectangle-Copy-26" fill="#FD9773" x="0" y="0" width="150" height="150.513699"></rect>
        <g id="Group" transform="translate(29.000000, 32.000000)">
            <path d="M81.7511145,14.2967238 C88.1279954,20.8979334 91.9783573,29.3471673 91.9783573,38.6943434 C91.9783573,60.4805704 71.0610998,77.3886869 45.9891787,77.3886869 C41.1410763,77.3886869 36.4483213,76.7564736 32.0321114,75.579027 C30.2880767,75.1140337 27.5352831,73.4166427 28.6809413,70.5113249 C29.8265996,67.606007 33.6203824,67.829937 35.2207927,68.210835 C38.6352194,69.0234693 42.2492024,69.4595181 45.9891787,69.4595181 C67.0091417,69.4595181 84.0491886,55.6854802 84.0491886,38.6943434 C84.0491886,31.8444025 81.2797001,25.5173309 76.5964609,20.4048501 C75.9772765,19.7289145 74.9187918,17.0698013 76.5795959,14.7504883 C78.0094273,12.7537286 80.6872989,13.1954848 81.7511145,14.2967238 Z" id="Shape-Copy-24" fill="#123766" fill-rule="nonzero"></path>
            <path d="M45.9891787,-1.08671242e-13 C51.8302638,-1.08671242e-13 57.4458482,0.917713392 62.6239696,2.60102113 C63.9957626,3.04696464 66.0063399,5.15825025 64.7776047,7.75860001 C63.5488695,10.3589498 59.8996704,10.0139669 58.2517326,9.56088087 C54.4040526,8.50299513 50.2795173,7.92916874 45.9891787,7.92916874 C24.9692156,7.92916874 7.92916874,21.7032066 7.92916874,38.6943434 C7.92916874,45.9975744 11.0773229,52.7064454 16.3365199,57.9826247 C17.0741134,58.7225999 18.2687442,61.6908067 16.836297,63.7162667 C15.4038498,65.7417267 12.6358533,65.4277312 11.5491666,64.3998247 C4.3862662,57.6243741 3.30193389e-13,48.670819 3.30193389e-13,38.6943434 C3.30193389e-13,16.9081165 20.9172575,-1.08671242e-13 45.9891787,-1.08671242e-13 Z" id="Path-Copy-24" fill="#FFFFFF" fill-rule="nonzero"></path>
            <circle id="Oval-Copy-86" fill="#123766" cx="60.1942737" cy="46.4583519" r="9.51500248"></circle>
            <circle id="Oval-Copy-88" fill="#FFFFFF" cx="32.5797702" cy="32.6036488" r="9.51500248"></circle>
            <path d="M64.5901742,71.8416947 C65.4297816,71.2649966 66.3215165,71.2723813 67.4404692,71.603571 L67.766504,71.7067828 L67.766504,71.7067828 L68.1058119,71.8262676 L68.1058119,71.8262676 L68.4593004,71.9606764 L68.4593004,71.9606764 L69.0181068,72.1873211 L69.0181068,72.1873211 L71.4070057,73.2060914 L71.4070057,73.2060914 L72.164734,73.5150728 L72.164734,73.5150728 L72.9737663,73.8287978 L72.9737663,73.8287978 L73.5431359,74.0383347 L73.5431359,74.0383347 L74.1375761,74.2466072 L74.1375761,74.2466072 L74.7579943,74.4522664 L74.7579943,74.4522664 L75.405298,74.6539632 C75.9561722,74.8200182 76.5359974,74.9805404 77.147137,75.1320169 L77.8956867,75.3092217 C82.7336124,76.4011721 89.4348556,76.8894699 99.0368358,75.231953 C93.1832575,71.6315158 89.0190792,66.8477602 86.3265287,62.3890686 L85.9429771,61.7390727 C85.6942458,61.3075226 85.4594207,60.8797669 85.2382993,60.4572061 L84.9168699,59.8274364 C84.2944656,58.5763897 83.7944859,57.3784015 83.4114706,56.2712901 L83.2296847,55.7254825 L83.2296847,55.7254825 L83.0672412,55.1958716 L83.0672412,55.1958716 L82.9239884,54.6835078 C82.6565726,53.6767278 82.5033911,52.7797338 82.4589841,52.0303443 L82.4458199,51.668125 C82.4423613,51.3768177 82.4576292,51.1122305 82.4912286,50.877099 L64.5901742,71.8416947 Z" id="Oval-Copy-90" fill="#123766"></path>
        </g>
    </g>
</svg>