<?xml version="1.0" encoding="UTF-8"?>
<svg width="150px" height="150px" viewBox="0 0 150 150" version="1.1" xmlns="http://www.w3.org/2000/svg" xmlns:xlink="http://www.w3.org/1999/xlink">
    <title>icon_hapgrab</title>
    <g id="icon_hapgrab" stroke="none" stroke-width="1" fill="none" fill-rule="evenodd">
        <polygon id="Rectangle" fill="#613992" points="0 -5.68434189e-14 150 -5.68434189e-14 150 150 0 150"></polygon>
        <path d="M65.3566482,112.972163 C65.3566482,116.271042 62.6823782,118.945312 59.383499,118.945312 L53.2593774,118.945312 C49.9604982,118.945312 47.2862282,116.271042 47.2862282,112.972163 L47.2862282,37.0278368 C47.2862282,33.7289575 49.9604982,31.0546875 53.2593774,31.0546875 L59.383499,31.0546875 C62.6823782,31.0546875 65.3566482,33.7289575 65.3566482,37.0278368 L65.3566482,62.431839 C65.7930129,61.719939 65.9891401,61.4698203 66.1572754,61.1957039 C69.841229,55.5656855 76.5554157,54.9016061 82.981671,56.2681773 C89.5764544,57.6697341 93.9180807,63.0664745 95.1570825,70.7914631 C96.2369425,77.5244823 95.5585634,84.2660345 95.3964351,91.0050269 C95.3072645,94.6972864 94.9923942,98.3959458 95.8691672,102.037007 C96.7625797,105.748466 98.2417874,106.885924 101.991219,106.864165 C102.630772,106.860325 103.270752,106.831739 103.909879,106.846672 C106.129331,106.89915 107.721602,107.904346 108.44222,110.03932 C109.144491,112.120536 108.692665,113.931254 106.999278,115.417288 C102.765595,119.132587 97.7400429,119.36682 92.5681489,118.575377 C84.5001309,117.341069 81.1555939,111.572286 79.4212474,104.41304 C78.5973794,101.012185 78.5372213,97.5230127 78.4740766,94.0432266 C78.503089,90.9124431 80.3915625,77.1808881 77.6962872,71.4271768 C77.09614,70.1460188 76.3061826,67.6843187 73.4694308,67.2058669 C70.632679,66.7274152 68.364194,67.5212464 67.056501,70.1460188 C66.0546877,72.1573517 65.4171492,73.8763325 65.3566482,76.5717326 L65.3566482,112.972163 Z" id="Combined-Shape" fill="#FDFCFD"></path>
    </g>
</svg>