<?xml version="1.0" encoding="UTF-8"?>
<svg width="150px" height="150px" viewBox="0 0 150 150" version="1.1" xmlns="http://www.w3.org/2000/svg" xmlns:xlink="http://www.w3.org/1999/xlink">
    <title>icon_goplayer</title>
    <g id="icon_goplayer" stroke="none" stroke-width="1" fill="none" fill-rule="evenodd">
        <rect id="Rectangle" fill="#182E51" x="0" y="-0.234955606" width="150" height="150"></rect>
        <g id="Group-4-Copy" transform="translate(36.328125, 27.392578)">
            <path d="M77.199654,38.6003843 C77.199654,49.258874 72.8790814,58.9086914 65.8936078,65.8947223 L54.9492347,77.6488196 L52.2263767,74.7219981 L40.6695557,62.3080842 C46.4189878,61.8182373 51.5788203,59.2815101 55.4273788,55.4279361 C59.7362485,51.1251964 62.4011496,45.1718007 62.4011496,38.6003843 C62.4011496,25.4575514 51.7421026,14.7985044 38.599827,14.7985044 C25.4569941,14.7985044 14.7985044,25.4575514 14.7985044,38.6003843 C14.7985044,45.1718007 17.4628482,51.1251964 21.7722752,55.4279361 L21.7661451,55.4335088 L38.599827,73.5032322 L41.9117272,77.0603346 L43.2525369,78.5003397 L43.2642398,78.5059124 L46.6290814,82.1271017 L48.7043829,84.35454 L47.5792396,85.561603 L38.599827,95.1997176 L29.6204144,85.561603 L11.3054889,65.8947223 C4.32057256,58.9086914 -7.91938978e-15,49.258874 -7.91938978e-15,38.6003843 C-7.91938978e-15,17.2828475 17.2822903,7.91938978e-15 38.599827,7.91938978e-15 C59.9173637,7.91938978e-15 77.199654,17.2828475 77.199654,38.6003843" id="Fill-554" fill="#FFFFFF"></path>
            <path d="M53.2505971,38.6026134 C53.2505971,46.6953974 46.6903262,53.2562256 38.5969849,53.2562256 C30.5042008,53.2562256 23.9433726,46.6953974 23.9433726,38.6026134 C23.9433726,30.5098293 30.5042008,23.9490011 38.5969849,23.9490011 C46.6903262,23.9490011 53.2505971,30.5098293 53.2505971,38.6026134" id="Fill-552" fill="#F05661"></path>
        </g>
    </g>
</svg>