<svg width="150" height="150" viewBox="0 0 150 150" fill="none" xmlns="http://www.w3.org/2000/svg">
<g id="icon_devote_new" clip-path="url(#clip0_604_1183)">
<rect width="150" height="150" fill="white"/>
<g id="Group 156">
<rect id="Rectangle Copy" width="150" height="153" fill="#2E4664"/>
<g id="Group">
<path id="Combined Shape" fill-rule="evenodd" clip-rule="evenodd" d="M54.5127 45.8423C49.3938 45.8423 45.244 49.9924 45.244 55.1118C45.244 60.2312 49.3938 64.3814 54.5127 64.3814C59.6316 64.3814 63.7814 60.2312 63.7814 55.1118C63.7814 49.9924 59.6316 45.8423 54.5127 45.8423ZM54.5129 50.3641C57.1348 50.3641 59.2602 52.4897 59.2602 55.1119C59.2602 57.734 57.1348 59.8597 54.5129 59.8597C51.891 59.8597 49.7655 57.734 49.7655 55.1119C49.7655 52.4897 51.891 50.3641 54.5129 50.3641ZM35.5303 102.291C35.5303 111.22 42.7681 118.459 51.6965 118.459C60.6248 118.459 67.8627 111.22 67.8627 102.291C67.8627 95.0735 63.0928 88.7918 56.2758 86.7816V81.1852L56.2753 81.1379C56.2501 79.9111 55.2479 78.9243 54.0151 78.9243C52.7666 78.9243 51.7545 79.9365 51.7545 81.1852V96.1539L51.7539 96.1959C51.7316 97.0205 51.0563 97.682 50.2265 97.682C49.3825 97.682 48.6984 96.9978 48.6984 96.1539V91.034C48.7323 91.025 48.7662 91.0161 48.8002 91.0075L48.6984 90.6096V76.4673L48.6991 76.3816C48.7449 73.5573 51.0484 71.282 53.8833 71.282H56.0626L56.1374 71.2825C58.6025 71.3177 60.7069 73.0869 61.1597 75.5176L63.4999 88.0799L63.5096 88.1291C63.7281 89.1741 64.6502 89.9267 65.7223 89.9267H74.655L74.7038 89.9272C75.8548 89.9522 76.7969 90.8608 76.8585 92.016L77.673 107.283L77.6761 107.331C77.7638 108.508 78.7449 109.423 79.9304 109.423H87.6094L87.6567 109.423C88.8834 109.397 89.87 108.395 89.87 107.162L89.8696 107.115C89.8444 105.888 88.8421 104.901 87.6094 104.901L82.0736 104.901L81.3734 91.7751L81.3669 91.6681C81.1238 88.1476 78.1957 85.4049 74.655 85.4049L67.6006 85.4049L65.6045 74.6894L65.5779 74.5519C64.668 70.0268 60.6908 66.7603 56.0626 66.7603H53.8833L53.7228 66.7616C48.755 66.8421 44.6945 70.6551 44.2229 75.5188H37.7918L37.7445 75.5193C36.5178 75.5444 35.5311 76.5468 35.5311 77.7796C35.5311 79.0283 36.5433 80.0405 37.7918 80.0405H44.1771V87.9734C38.977 90.7065 35.5303 96.1543 35.5303 102.291ZM56.2758 96.1539V91.5786C60.4911 93.38 63.3414 97.5566 63.3414 102.291C63.3414 108.723 58.1278 113.937 51.6965 113.937C45.2652 113.937 40.0516 108.723 40.0516 102.291C40.0516 98.7625 41.6342 95.5494 44.1771 93.3953V96.1539L44.1779 96.2539C44.2314 99.549 46.9189 102.204 50.2265 102.204C53.5674 102.204 56.2758 99.4951 56.2758 96.1539Z" fill="white"/>
<path id="Path" d="M62.981 45.2549C65.7526 37.2568 73.7342 32.8333 81.6883 34.2678C85.641 34.9807 89.186 37.1039 91.7307 40.4166C93.9107 43.2545 95.2796 46.8475 95.74 51.0533L95.7528 51.1749L95.7919 51.1751C101.149 51.2192 105.72 52.7797 109.224 55.6735L109.35 55.7786C113.184 59.0039 115.455 63.6618 115.877 68.7611C116.286 73.71 114.918 78.7399 111.997 82.7513C108.822 87.1118 104.038 90.0041 98.1773 90.8554C95.0707 91.3067 91.5279 91.4796 87.6408 91.4193C85.9763 91.3934 84.6479 90.023 84.6737 88.3583C84.6995 86.6937 86.0698 85.3652 87.7343 85.391C91.3241 85.4467 94.5582 85.2889 97.3107 84.889C101.563 84.2714 104.904 82.2518 107.124 79.2022C109.184 76.3737 110.16 72.7822 109.869 69.2578C109.576 65.7124 108.033 62.5495 105.469 60.3923C102.603 57.9813 98.5265 56.8348 93.3471 57.306L93.1898 57.3208L89.885 57.641V54.3204C89.885 49.9648 88.8265 46.5321 86.9502 44.0895C85.3284 41.9784 83.1118 40.6507 80.6185 40.2011C75.5806 39.2925 70.5576 42.0394 68.7314 47.0758L68.677 47.2291C68.1319 48.8022 66.4149 49.6355 64.8419 49.0903C63.269 48.5451 62.4359 46.8279 62.981 45.2549Z" fill="url(#paint0_linear_604_1183)"/>
</g>
</g>
</g>
<defs>
<linearGradient id="paint0_linear_604_1183" x1="62.814" y1="91.4309" x2="115.948" y2="91.4309" gradientUnits="userSpaceOnUse">
<stop stop-color="#F97EA2"/>
<stop offset="1" stop-color="#F96863"/>
</linearGradient>
<clipPath id="clip0_604_1183">
<rect width="150" height="150" fill="white"/>
</clipPath>
</defs>
</svg>
