<?xml version="1.0" encoding="UTF-8"?>
<svg width="150px" height="150px" viewBox="0 0 150 150" version="1.1" xmlns="http://www.w3.org/2000/svg" xmlns:xlink="http://www.w3.org/1999/xlink">
    <title>icon_polifitema</title>
    <defs>
        <linearGradient x1="50%" y1="0%" x2="50%" y2="100%" id="linearGradient-1">
            <stop stop-color="#E92127" offset="0%"></stop>
            <stop stop-color="#9F041B" offset="100%"></stop>
        </linearGradient>
        <path d="M36.6295024,47.0619425 L36.6295024,47.0397968 C38.6226127,47.0397968 40.6157229,47.1173066 42.6060649,47.0287239 C51.5805974,46.6217973 58.473437,41.7580547 60.8956196,34.1842358 C64.0403046,24.343254 59.4838331,16.1825748 49.7867982,15.0033179 C45.0946845,14.4302988 40.2863061,14.7957023 35.5305236,14.7320335 C33.8363799,14.7098878 33.2467514,15.8227077 32.9671624,17.2289577 C31.1622903,26.2173312 29.3684911,35.208473 27.5691555,44.1968465 C27.1733016,46.1705793 27.8985723,47.1366841 29.9885699,47.0757835 C32.2003686,47.0121147 34.4149355,47.0619425 36.6295024,47.0619425 M37.7533951,61.2047205 C33.6619827,61.2047205 30.8716284,61.4344818 28.1366383,61.1410517 C25.0279399,60.8088667 23.967716,62.5722156 23.502657,65.0165438 C21.2299576,76.9115364 19.0153907,88.8176019 16.8146648,100.726436 C16.4686387,102.594976 15.6852357,103.674578 13.5758607,103.619214 C9.92736168,103.522326 6.27332625,103.583227 2.62205902,103.5943 C0.534829693,103.599836 -0.339924244,102.874565 0.141744063,100.563111 C2.22066877,90.583719 4.47399062,80.6264725 6.06847881,70.564034 C7.65189416,60.5846418 9.87753393,50.7325871 11.6796378,40.8002545 C13.9523371,28.257501 16.6208902,15.7756482 18.9461855,3.23289472 C19.2091653,1.80173084 20.1226742,0.481295308 21.7863676,0.503440977 C34.4564586,0.677838123 47.2289734,-1.07720617 59.760654,1.73529383 C71.0383361,4.26820476 79.6889882,14.579782 78.1111092,29.5419498 C76.6135083,43.7317874 67.680499,55.7430448 53.0698937,59.817848 C47.6275954,61.3348263 42.0247411,61.3292899 37.7533951,61.2047205" id="path-2"></path>
        <filter x="-15.3%" y="-11.6%" width="130.7%" height="123.2%" filterUnits="objectBoundingBox" id="filter-3">
            <feOffset dx="0" dy="0" in="SourceAlpha" result="shadowOffsetOuter1"></feOffset>
            <feGaussianBlur stdDeviation="4" in="shadowOffsetOuter1" result="shadowBlurOuter1"></feGaussianBlur>
            <feColorMatrix values="0 0 0 0 0.91372549   0 0 0 0 0.129411765   0 0 0 0 0.152941176  0 0 0 1 0" type="matrix" in="shadowBlurOuter1"></feColorMatrix>
        </filter>
    </defs>
    <g id="icon_polifitema" stroke="none" stroke-width="1" fill="none" fill-rule="evenodd">
        <rect id="Background" fill="url(#linearGradient-1)" x="0" y="0" width="150" height="150"></rect>
        <g id="Fill-6" transform="translate(37.792969, 22.265625)">
            <use fill="black" fill-opacity="1" filter="url(#filter-3)" xlink:href="#path-2"></use>
            <use fill="#FFFFFF" fill-rule="evenodd" xlink:href="#path-2"></use>
        </g>
    </g>
</svg>