<svg width="150" height="150" viewBox="0 0 150 150" fill="none" xmlns="http://www.w3.org/2000/svg">
<rect width="150" height="150" fill="white"/>
<rect width="150" height="150" fill="#31B0CC"/>
<path fill-rule="evenodd" clip-rule="evenodd" d="M71.875 103.56C91.1561 103.56 106.787 87.9869 106.787 68.7734C106.787 49.8064 91.555 34.3848 72.6151 33.9925C72.3684 33.9866 72.1217 33.9844 71.875 33.9844C71.6283 33.9844 71.3816 33.9866 71.1349 33.9925C55.645 34.3848 43.2129 47.0169 43.2129 62.546C43.2129 78.3209 56.0446 91.1076 71.875 91.1076V103.56ZM71.875 103.56L71.875 116.016H59.3787V103.56L71.875 103.56ZM76.218 90.7823C76.2427 90.7777 76.2666 90.7741 76.2902 90.7705C76.3116 90.7673 76.3327 90.7641 76.3539 90.7602C86.8405 88.893 94.8004 79.7598 94.8004 68.7734C94.8004 56.5806 85.0006 46.6739 72.8226 46.445C72.6786 46.4391 72.5316 46.4391 72.3876 46.4391C72.2155 46.4391 72.0471 46.4421 71.875 46.448C63.1839 46.7159 56.2218 53.8221 56.2218 62.546C56.2218 71.2699 63.1839 78.379 71.875 78.647V91.1076C71.9717 91.1076 72.0663 91.1076 72.163 91.1054C72.2376 91.1076 72.313 91.1076 72.3876 91.1076C73.4996 91.1076 74.5929 91.0275 75.6615 90.8711C74.5927 91.0275 73.499 91.1076 72.3876 91.1076C72.313 91.1076 72.2384 91.1076 72.1631 91.1054C73.5406 91.0936 74.893 90.9832 76.218 90.7823C76.218 90.7823 76.218 90.7823 76.218 90.7823ZM72.1631 91.1046C72.0663 91.1046 71.9718 91.1046 71.875 91.0995V91.1076C71.9718 91.1076 72.0663 91.1076 72.1631 91.1046Z" fill="white"/>
</svg>
