<?xml version="1.0" encoding="UTF-8"?>
<svg width="150px" height="150px" viewBox="0 0 150 150" version="1.1" xmlns="http://www.w3.org/2000/svg" xmlns:xlink="http://www.w3.org/1999/xlink">
    <title>icon_gente</title>
    <g id="icon_gente" stroke="none" stroke-width="1" fill="none" fill-rule="evenodd">
        <rect id="Rectangle-Copy" fill="#FFFFFF" x="0" y="0" width="150" height="150"></rect>
        <g id="Group-8" transform="translate(27.500000, 25.000000)">
            <polyline id="Fill-61" fill="#F9C623" points="53.8202703 23.9337838 53.5027027 20.0013514 57.9040541 17.3527027 61.9932432 23.9337838 53.8202703 23.9337838"></polyline>
            <polyline id="Fill-62" fill="#2B8EC2" points="47.1108108 5.68434189e-14 52.6621622 8.85675676 45.8432432 11.2972973 41.9972973 8.17432432 47.1108108 5.68434189e-14"></polyline>
            <polyline id="Fill-63" fill="#1E2954" points="47.2243243 19.9054054 47.1864865 12.5878378 53.3621622 10.0567568 57.2878378 16.3932432 47.2243243 19.9054054"></polyline>
            <polyline id="Fill-64" fill="#F9C623" points="45.1689189 13.327027 44.627027 19.2162162 37.2702703 15.7554054 41.0027027 9.8027027 45.1689189 13.327027"></polyline>
            <polyline id="Fill-65" fill="#2B8EC2" points="47.4405405 31.25 42.3689189 27.6662162 50.8094595 20.1945946 52.7256757 31.0702703 47.4405405 31.25"></polyline>
            <polyline id="Fill-66" fill="#2B8EC2" points="23.1594595 64.922973 24.9554054 64.9675676 30.8567568 75.4540541 23.4391892 75.4540541 23.1594595 64.922973"></polyline>
            <polyline id="Fill-67" fill="#F9C623" points="56.8675676 71.4891892 61.6959459 75.9486486 55.1527027 86.4040541 51.9689189 80.3783784 56.8675676 71.4891892"></polyline>
            <polyline id="Fill-68" fill="#E7792B" points="42.1513514 77.1459459 35.1932432 80.3283784 29.0932432 70.5256757 39.1581081 66.4418919 42.1513514 77.1459459"></polyline>
            <polyline id="Fill-69" fill="#E7792B" points="12.972973 75.4540541 15.627027 68.8527027 21.9283784 68.6 21.8743243 75.4540541 12.972973 75.4540541"></polyline>
            <polyline id="Fill-70" fill="#F9C623" points="20.6662162 58.9621622 21.3878378 67.2256757 16.2162162 67.2986486 15.8486486 55.6905405 20.6662162 58.9621622"></polyline>
            <polyline id="Fill-71" fill="#E7792B" points="73.872973 62.472973 79.8648649 70.1864865 76.1243243 75.4540541 71.0189189 75.4540541 73.872973 62.472973"></polyline>
            <polyline id="Fill-72" fill="#F9C623" points="77.1527027 23.9513514 81.8054054 23.9513514 81.4081081 34.3364865 73.5756757 33.1891892 77.1527027 23.9513514"></polyline>
            <polyline id="Fill-73" fill="#2B8EC2" points="72.1418919 33.3310811 64.5851351 30.9027027 63.2554054 23.9513514 76.122973 23.9513514 72.1418919 33.3310811"></polyline>
            <polyline id="Fill-74" fill="#E7792B" points="83.022973 23.9513514 94.2256757 23.9513514 87.0391892 35.3540541 82.2689189 34.05 83.022973 23.9513514"></polyline>
            <polyline id="Fill-75" fill="#1E2954" points="74.4054054 34.7459459 86.5675676 36.1027027 82.7378378 42.1810811 70.8121622 37.75 74.4054054 34.7459459"></polyline>
            <polyline id="Fill-76" fill="#2B8EC2" points="38.9243243 27.9445946 31.25 30.2108108 22.1486486 23.9513514 29.9324324 23.9513514 38.9243243 27.9445946"></polyline>
            <polyline id="Fill-77" fill="#E7792B" points="20.2310811 23.9513514 29.2310811 30.6175676 12.8972973 30.5567568 16.822973 23.9513514 20.2310811 23.9513514"></polyline>
            <polyline id="Fill-78" fill="#2B8EC2" points="71.8310811 63.8905405 69.6364865 75.4540541 61.977027 75.4540541 65.4486486 68.4972973 71.8310811 63.8905405"></polyline>
            <polyline id="Fill-79" fill="#E7792B" points="32.5527027 33.827027 33.9297297 31.0040541 40.3689189 28.9756757 46.0486486 32.6891892 32.5527027 33.827027"></polyline>
            <polyline id="Fill-80" fill="#1E2954" points="54.6635135 25.6567568 61.9162162 25.1891892 62.5594595 30.5121622 54.7391892 35.6635135 54.6635135 25.6567568"></polyline>
            <polyline id="Fill-81" fill="#2B8EC2" points="52.4216216 47.6716216 45.1540541 53.2283784 40.6851351 48.0864865 44.7945946 45.8864865 52.4216216 47.6716216"></polyline>
            <polyline id="Fill-82" fill="#1E2954" points="63.4216216 59.9243243 71.4621622 59.0418919 73.8067568 60.3932432 65.1 66.5216216 63.4216216 59.9243243"></polyline>
            <polyline id="Fill-83" fill="#E7792B" points="63.2675676 65.6621622 55.6094595 58.8094595 58.027027 53.0027027 61.2094595 58.1189189 63.2675676 65.6621622"></polyline>
            <polyline id="Fill-84" fill="#1E2954" points="54.6527027 60.7148649 63.7364865 68.3702703 61.477027 73.9418919 52.85 64.0797297 54.6527027 60.7148649"></polyline>
            <polyline id="Fill-85" fill="#1E2954" points="73.8486486 44.5743243 59.1797297 49.4405405 57.1405405 47.1608108 69.8513514 39.6675676 73.8486486 44.5743243"></polyline>
            <polyline id="Fill-86" fill="#1E2954" points="38.877027 46.3108108 32.9905405 35.5918919 41.2081081 35.3148649 43.3851351 44.5554054 38.877027 46.3108108"></polyline>
            <polyline id="Fill-87" fill="#F9C623" points="44.5864865 40.2202703 43.3918919 34.722973 52.9081081 33.3351351 52.9567568 38.2635135 44.5864865 40.2202703"></polyline>
            <polyline id="Fill-88" fill="#E7792B" points="27.6594595 46.4540541 26.6743243 40.577027 30.9472973 35.7783784 32.5986486 39.4378378 27.6594595 46.4540541"></polyline>
            <polyline id="Fill-89" fill="#F9C623" points="33.8986486 41.3432432 39.55 50.7121622 29.1851351 53.172973 28.3486486 48.7148649 33.8986486 41.3432432"></polyline>
            <polyline id="Fill-90" fill="#E7792B" points="18.7608108 48.7986486 25.5662162 43.4148649 26.9540541 52.9743243 18.7608108 48.7986486"></polyline>
            <polyline id="Fill-91" fill="#1E2954" points="23.1148649 64.0689189 22.8891892 58.7472973 32.9581081 54.2945946 23.1148649 64.0689189"></polyline>
            <polyline id="Fill-92" fill="#F9C623" points="23.9972973 39.9337838 18.0824324 37.6513514 21.7986486 32.1121622 31.3067568 31.6486486 23.9972973 39.9337838"></polyline>
            <polyline id="Fill-93" fill="#F9C623" points="16.1905405 49.6918919 27.4635135 54.9148649 21.6945946 58.1054054 14.0945946 53.0837838 16.1905405 49.6918919"></polyline>
            <polyline id="Fill-94" fill="#F9C623" points="29.3716216 68.6608108 26.9108108 63.0810811 34.8513514 55.277027 38.3135135 65.2783784 29.3716216 68.6608108"></polyline>
            <polyline id="Fill-95" fill="#E7792B" points="36.4121622 53.7972973 41.5162162 52.222973 45.5837838 57.2648649 39.6189189 63.3135135 36.4121622 53.7972973"></polyline>
            <polyline id="Fill-96" fill="#F9C623" points="51.6756757 62.4364865 46.7486486 54.8662162 54.5648649 48.2878378 57.2527027 49.9 51.6756757 62.4364865"></polyline>
            <polyline id="Fill-97" fill="#2B8EC2" points="81.9581081 43.4135135 78.3310811 49.1432432 72.8243243 40.3878378 81.9581081 43.4135135"></polyline>
            <polyline id="Fill-98" fill="#F9C623" points="67.7527027 48.3635135 68.9540541 58.1351351 63.4148649 58.3932432 59.6 51.1202703 67.7527027 48.3635135"></polyline>
            <polyline id="Fill-99" fill="#E7792B" points="45.7027027 43.8675676 45.3175676 42.1175676 53.1256757 40.3851351 53.3243243 45.8094595 45.7027027 43.8675676"></polyline>
            <polyline id="Fill-100" fill="#2B8EC2" points="62.2364865 42.3783784 55.6094595 45.4743243 55.072973 38.1364865 57.7108108 36.1540541 62.2364865 42.3783784"></polyline>
            <polyline id="Fill-101" fill="#E7792B" points="54.2824324 73.4 47.8459459 81.7635135 43.9027027 77.0675676 54.2824324 73.4"></polyline>
            <polyline id="Fill-102" fill="#1E2954" points="43.4216216 75.6378378 41.1445946 65.4445946 42.7297297 62.9513514 52.2959459 71.9918919 43.4216216 75.6378378"></polyline>
            <polyline id="Fill-103" fill="#2B8EC2" points="53.5378378 71.0418919 43.5621622 61.6135135 46.5135135 58.8013514 55.7445946 69.7905405 53.5378378 71.0418919"></polyline>
            <polyline id="Fill-104" fill="#1E2954" points="40.2216216 88.372973 35.9135135 81.4824324 42.0554054 78.5324324 46.1716216 83.5702703 40.2216216 88.372973"></polyline>
            <polyline id="Fill-105" fill="#1E2954" points="45.8135135 21.2824324 40.8324324 26.3716216 32.1608108 23.9283784 36.4837838 17.0121622 45.8135135 21.2824324"></polyline>
            <polyline id="Fill-106" fill="#1E2954" points="0.0108108108 23.9513514 15.4364865 23.9513514 6.78378378 34.7243243 0.0108108108 23.9513514"></polyline>
            <polyline id="Fill-107" fill="#2B8EC2" points="19.5256757 31.6864865 11.9148649 42.8851351 7.59594595 36.0324324 11.7716216 32.2851351 19.5256757 31.6864865"></polyline>
            <polyline id="Fill-108" fill="#1E2954" points="17.0851351 39.3689189 24.3337838 41.6081081 15.8337838 49.077027 12.5027027 43.7783784 17.0851351 39.3689189"></polyline>
            <polyline id="Fill-109" fill="#2B8EC2" points="75.2486486 59.572973 72.1959459 57.9459459 78.0162162 49.6932432 81.6486486 55.4567568 81.7986486 55.7432432 75.2486486 59.572973"></polyline>
            <polyline id="Fill-110" fill="#1E2954" points="77.8864865 75.4513514 81.3648649 70.3054054 90.5243243 69.5418919 94.25 75.4513514 77.8864865 75.4513514"></polyline>
            <polyline id="Fill-111" fill="#F9C623" points="81.0486486 67.35 84.4986486 59.9783784 90.0175676 68.7364865 81.4797297 69.1891892 81.0486486 67.35"></polyline>
            <polyline id="Fill-112" fill="#1E2954" points="75.2054054 61.5189189 82.3554054 56.577027 83.8094595 58.8810811 79.7027027 67.7824324 75.2054054 61.5189189"></polyline>
            <polyline id="Fill-113" fill="#2B8EC2" points="6.43783784 65.2121622 13.5621622 68.5905405 11.3445946 75.4540541 2.93098879e-14 75.4540541 6.43783784 65.2121622"></polyline>
            <polyline id="Fill-114" fill="#1E2954" points="13.6878378 53.6824324 14.9189189 67.6108108 7.12702703 64.1148649 13.6878378 53.6824324"></polyline>
            <polyline id="Fill-115" fill="#2B8EC2" points="50.677027 82.2013514 54.7756757 87.0810811 47.2243243 99.25 47.1256757 99.4094595 41.2608108 90.0189189 50.677027 82.2013514"></polyline>
            <polyline id="Fill-116" fill="#F9C623" points="72.0121622 35.127027 64.0472973 41.2297297 58.9378378 35.0932432 63.8162162 31.8013514 72.0121622 35.127027"></polyline>
            <polyline id="Fill-117" fill="#E7792B" points="76.2851351 49.4378378 70.5121622 57.8351351 69.8513514 47.9445946 74.3702703 46.5391892 76.2851351 49.4378378"></polyline>
        </g>
    </g>
</svg>