<?xml version="1.0" encoding="UTF-8"?>
<svg width="150px" height="150px" viewBox="0 0 150 150" version="1.1" xmlns="http://www.w3.org/2000/svg" xmlns:xlink="http://www.w3.org/1999/xlink">
    <title>icon_drluke</title>
    <g id="icon_drluke" stroke="none" stroke-width="1" fill="none" fill-rule="evenodd">
        <rect id="Rectangle" fill="#FEC267" x="0" y="0" width="150" height="150"></rect>
        <g id="Group-5" transform="translate(23.750000, 30.500000)" fill="#FFFFFF">
            <path d="M1.09834957,24.4328733 L8.34619408,17.1850288 C9.81066017,15.7205627 12.1850288,15.7205627 13.6494949,17.1850288 L59.335355,62.8708889 C60.7998211,64.335355 63.1741897,64.335355 64.6386558,62.8708889 L87.4972317,40.012313 C88.9616978,38.547847 91.3360664,38.547847 92.8005325,40.012313 L99.7941277,47.0059082 C101.258594,48.4703743 101.258594,50.844743 99.7941277,52.3092091 L64.3844065,87.7189303 C62.9199404,89.1833964 60.5455717,89.1833964 59.0811056,87.7189303 L1.09834957,29.7361742 C-0.366116524,28.2717081 -0.366116524,25.8973394 1.09834957,24.4328733 Z" id="Rectangle-Copy-2" fill-opacity="0.25"></path>
            <path d="M1.98223305,16.4779221 L9.23007755,9.23007755 C10.6945436,7.76561146 13.0689123,7.76561146 14.5333784,9.23007755 L60.2192385,54.9159376 C61.6837045,56.3804037 64.0580732,56.3804037 65.5225393,54.9159376 L88.3811151,32.0573618 C89.8455812,30.5928957 92.2199499,30.5928957 93.684416,32.0573618 L100.678011,39.0509569 C102.142477,40.515423 102.142477,42.8897917 100.678011,44.3542578 L65.26829,79.763979 C63.8038239,81.2284451 61.4294552,81.2284451 59.9649891,79.763979 L1.98223305,21.7812229 C0.517766953,20.3167568 0.517766953,17.9423882 1.98223305,16.4779221 Z" id="Rectangle-Copy" fill-opacity="0.5"></path>
            <path d="M2.68933983,8.34619408 L9.93718434,1.09834957 C11.4016504,-0.366116524 13.7760191,-0.366116524 15.2404852,1.09834957 L60.9263452,46.7842096 C62.3908113,48.2486757 64.76518,48.2486757 66.2296461,46.7842096 L89.0882219,23.9256338 C90.552688,22.4611677 92.9270567,22.4611677 94.3915228,23.9256338 L101.385118,30.9192289 C102.849584,32.383695 102.849584,34.7580637 101.385118,36.2225298 L65.9753967,71.632251 C64.5109307,73.0967171 62.136562,73.0967171 60.6720959,71.632251 L2.68933983,13.6494949 C1.22487373,12.1850288 1.22487373,9.81066017 2.68933983,8.34619408 Z" id="Rectangle"></path>
        </g>
    </g>
</svg>