<?xml version="1.0" encoding="UTF-8"?>
<svg width="150px" height="150px" viewBox="0 0 150 150" version="1.1" xmlns="http://www.w3.org/2000/svg" xmlns:xlink="http://www.w3.org/1999/xlink">
    <title>icon_4i20</title>
    <g id="icon_4i20" stroke="none" stroke-width="1" fill="none" fill-rule="evenodd">
        <rect fill="#FFFFFF" x="0" y="0" width="150" height="150"></rect>
        <g id="Group" transform="translate(42.500000, 23.000000)" stroke-linecap="round" stroke-linejoin="round" stroke-width="4.53090247">
            <path d="M38.3657632,37.8586009 L31.1007266,9.35548828 C31.1007266,9.35548828 29.4576777,1.47286126 23.7003277,3.45208947 C17.9429777,5.43131769 19.2623148,10.4392771 19.2623148,10.4392771 L24.3486418,33.9384378 C24.3486418,33.9384378 15.9971448,31.6773532 12.9390257,38.3199014 C7.8299898,36.2623055 2.43375431,37.2697515 0.316492184,43.7520022 C-0.353194933,50.7124736 0.316492184,54.0094594 0.316492184,54.0094594 C0.316492184,54.0094594 0.0359716495,78.0171192 6.48749867,86.7760389 C7.72854045,88.4609401 12.7082459,91.2678721 9.97977281,96.5607796 C7.25129968,101.853687 49.5112417,103.595912 48.9073731,97.1623189 C48.6721112,94.6558483 48.8331335,91.9171862 49.8053211,89.0817588 C50.832484,86.0859935 52.2683961,87.0803467 54.615917,81.8079959 C56.7173889,77.0882521 58.2315411,69.8754584 58.7297729,66.3617918 C59.5527877,60.5576665 55.6642164,57.6093759 53.0266187,57.0802446 C44.229984,55.3155425 28.8743881,53.9071499 23.3037733,56.802857 C21.4971482,57.7419736 22.6554592,62.8613943 23.7003277,64.4723372 C25.0801798,66.5997463 35.6004049,66.3441094 37.514757,67.0219017 C37.514757,67.9571053 37.3019753,68.7308641 36.6276466,69.4029847 C31.1007266,68.43224 24.1290995,68.6943925 22.3969048,66.5958069 C19.8746706,63.540074 19.4268618,58.8001694 19.8746706,57.5101882 C21.3868373,53.154162 27.7258251,53.2087008 29.8974266,53.154162 C43.0787284,52.8231198 55.3016647,55.540563 55.2631454,55.0898428 C54.4838716,45.971447 53.8293715,31.9398587 58.7297729,13.5953558 C60.1987209,9.35548828 60.3835082,2.78240236 54.615917,2.78240236 C48.8483257,2.78240236 47.2965574,6.2074245 46.3321011,13.3241859 C45.3676448,20.4409474 44.21662,25.7249746 42.8122363,34.9407421 C40.7969411,42.7418846 38.3657632,37.8586009 38.3657632,37.8586009 Z" id="Path-8-Copy-9" stroke="#00ACED" style="mix-blend-mode: multiply;" transform="translate(29.809472, 52.042373) scale(-1, 1) translate(-29.809472, -52.042373) "></path>
            <path d="M43.693099,39.822688 L36.4280624,11.3195754 C36.4280624,11.3195754 34.7850136,3.43694835 29.0276635,5.41617657 C23.2703135,7.39540478 24.5896506,12.4033642 24.5896506,12.4033642 L29.6759777,35.9025249 C29.6759777,35.9025249 21.3244806,33.6414403 18.2663615,40.2839885 C13.1573256,38.2263926 7.76109014,39.2338386 5.64382801,45.7160893 C4.97414089,52.6765607 5.64382801,55.9735465 5.64382801,55.9735465 C5.64382801,55.9735465 5.36330747,79.9812063 11.8148345,88.740126 C13.0558763,90.4250272 18.0355818,93.2319592 15.3071086,98.5248667 C12.5786355,103.817774 54.8385775,105.56 54.2347089,99.126406 C53.9994471,96.6199353 54.1604693,93.8812733 55.132657,91.0458459 C56.1598199,88.0500806 57.5957319,89.0444337 59.9432528,83.772083 C62.0447247,79.0523392 63.558877,71.8395455 64.0571087,68.3258789 C64.8801235,62.5217536 60.9915522,59.573463 58.3539546,59.0443317 C49.5573198,57.2796296 34.2017239,55.8712369 28.6311091,58.7669441 C26.824484,59.7060607 27.982795,64.8254814 29.0276635,66.4364243 C30.4075156,68.5638334 40.9277407,68.3081965 42.8420928,68.9859887 C42.8420928,69.9211924 42.6293111,70.6949512 41.9549824,71.3670718 C36.4280624,70.396327 29.4564353,70.6584796 27.7242406,68.559894 C25.2020064,65.5041611 24.7541976,60.7642565 25.2020064,59.4742753 C26.7141731,55.1182491 33.0531609,55.1727879 35.2247624,55.1182491 C48.4060642,54.7872069 60.6290005,57.5046501 60.5904812,57.0539298 C59.8112075,47.9355341 59.1567073,33.9039458 64.0571087,15.5594429 C65.5260567,11.3195754 65.7108441,4.74648945 59.9432528,4.74648945 C54.1756616,4.74648945 52.6238932,8.17151159 51.6594369,15.288273 C50.6949806,22.4050345 49.5439558,27.6890617 48.1395721,36.9048292 C46.124277,44.7059717 43.693099,39.822688 43.693099,39.822688 Z" id="Path-8-Copy-10" stroke="#FFF000" style="mix-blend-mode: multiply;" transform="translate(35.136808, 54.006460) scale(-1, 1) translate(-35.136808, -54.006460) "></path>
            <path d="M42.5141174,35.3493907 L35.2490808,6.84627804 C35.2490808,6.84627804 33.606032,-1.03634898 27.8486819,0.94287924 C22.0913319,2.92210746 23.410669,7.9300669 23.410669,7.9300669 L28.4969961,31.4292276 C28.4969961,31.4292276 20.145499,29.168143 17.0873799,35.8106911 C11.978344,33.7530953 6.58210853,34.7605413 4.4648464,41.242792 C3.79515928,48.2032634 4.4648464,51.5002492 4.4648464,51.5002492 C4.4648464,51.5002492 4.18432586,75.5079089 10.6358529,84.2668287 C11.8768947,85.9517298 16.8566002,88.7586619 14.128127,94.0515694 C11.3996539,99.3444769 53.6595959,101.086702 53.0557273,94.6531087 C52.8204655,92.146638 52.9814877,89.407976 53.9536753,86.5725486 C54.9808383,83.5767833 56.4167503,84.5711364 58.7642712,79.2987856 C60.8657431,74.5790418 62.3798954,67.3662482 62.8781271,63.8525816 C63.7011419,58.0484562 59.8125706,55.1001657 57.174973,54.5710344 C48.3783382,52.8063322 33.0227423,51.3979396 27.4521275,54.2936467 C25.6455024,55.2327634 26.8038134,60.352184 27.8486819,61.9631269 C29.228534,64.0905361 39.7487591,63.8348992 41.6631112,64.5126914 C41.6631112,65.447895 41.4503295,66.2216538 40.7760008,66.8937744 C35.2490808,65.9230297 28.2774537,66.1851823 26.545259,64.0865967 C24.0230248,61.0308637 23.575216,56.2909591 24.0230248,55.0009779 C25.5351915,50.6449518 31.8741793,50.6994905 34.0457808,50.6449518 C47.2270826,50.3139096 59.4500189,53.0313528 59.4114996,52.5806325 C58.6322259,43.4622368 57.9777257,29.4306485 62.8781271,11.0861456 C64.3470751,6.84627804 64.5318624,0.273192123 58.7642712,0.273192123 C52.99668,0.273192123 51.4449116,3.69821427 50.4804553,10.8149757 C49.515999,17.9317371 48.3649742,23.2157644 46.9605905,32.4315319 C44.9452953,40.2326744 42.5141174,35.3493907 42.5141174,35.3493907 Z" id="Path-8-Copy-11" stroke="#EB008A" style="mix-blend-mode: multiply;" transform="translate(33.957826, 49.533163) scale(-1, 1) translate(-33.957826, -49.533163) "></path>
        </g>
    </g>
</svg>