<svg width="150" height="150" viewBox="0 0 150 150" fill="none" xmlns="http://www.w3.org/2000/svg">
<g id="img-icon-psiapp" clip-path="url(#clip0_930_2427)">
<rect width="150" height="150" fill="white"/>
<rect id="Rectangle Copy 26" width="150" height="150.514" fill="#FD9773"/>
<g id="Group">
<path id="Shape Copy 24" d="M110.751 46.2967C117.128 52.8979 120.978 61.3471 120.978 70.6943C120.978 92.4805 100.061 109.389 74.9891 109.389C70.141 109.389 65.4483 108.756 61.0321 107.579C59.288 107.114 56.5352 105.417 57.6809 102.511C58.8266 99.606 62.6203 99.8299 64.2208 100.211C67.6352 101.023 71.2492 101.459 74.9891 101.459C96.0091 101.459 113.049 87.6854 113.049 70.6943C113.049 63.8444 110.28 57.5173 105.596 52.4048C104.977 51.7289 103.919 49.0698 105.58 46.7505C107.009 44.7537 109.687 45.1954 110.751 46.2967Z" fill="#123766"/>
<path id="Path Copy 24" d="M74.9892 32C80.8303 32 86.4458 32.9177 91.624 34.601C92.9958 35.047 95.0063 37.1583 93.7776 39.7586C92.5489 42.3589 88.8997 42.014 87.2517 41.5609C83.4041 40.503 79.2795 39.9292 74.9892 39.9292C53.9692 39.9292 36.9292 53.7032 36.9292 70.6943C36.9292 77.9976 40.0773 84.7064 45.3365 89.9826C46.0741 90.7226 47.2687 93.6908 45.8363 95.7163C44.4038 97.7417 41.6359 97.4277 40.5492 96.3998C33.3863 89.6244 29 80.6708 29 70.6943C29 48.9081 49.9173 32 74.9892 32Z" fill="white"/>
<circle id="Oval Copy 86" cx="89.1943" cy="78.4584" r="9.515" fill="#123766"/>
<circle id="Oval Copy 88" cx="61.5798" cy="64.6036" r="9.515" fill="white"/>
<path id="Oval Copy 90" fill-rule="evenodd" clip-rule="evenodd" d="M93.5902 103.842C94.4298 103.265 95.3216 103.272 96.4405 103.604L96.7665 103.707V103.707L97.1058 103.826V103.826L97.4593 103.961V103.961L98.0181 104.187V104.187L100.407 105.206V105.206L101.165 105.515V105.515L101.974 105.829V105.829L102.543 106.038V106.038L103.138 106.247V106.247L103.758 106.452V106.452L104.405 106.654C104.956 106.82 105.536 106.981 106.147 107.132L106.896 107.309C111.734 108.401 118.435 108.889 128.037 107.232C122.183 103.631 118.019 98.8477 115.327 94.389L114.943 93.739C114.694 93.3075 114.459 92.8797 114.238 92.4572L113.917 91.8274C113.295 90.5764 112.795 89.3784 112.412 88.2713L112.23 87.7255V87.7255L112.067 87.1958V87.1958L111.924 86.6835C111.657 85.6767 111.503 84.7797 111.459 84.0303L111.446 83.6681C111.442 83.3768 111.458 83.1122 111.491 82.8771L93.5902 103.842Z" fill="#123766"/>
</g>
</g>
<defs>
<clipPath id="clip0_930_2427">
<rect width="150" height="150" fill="white"/>
</clipPath>
</defs>
</svg>
