<svg width="533" height="100" viewBox="0 0 533 100" fill="none" xmlns="http://www.w3.org/2000/svg">
<g clip-path="url(#clip0_908_1088)">
<path d="M516.854 26.8763C516.854 25.3407 517.2 23.9708 517.892 22.7664C518.585 21.5319 519.533 20.5684 520.738 19.8759C521.972 19.1834 523.357 18.8372 524.893 18.8372H525.073C526.609 18.8372 527.979 19.1834 529.183 19.8759C530.418 20.5684 531.381 21.5319 532.074 22.7664C532.766 23.9708 533.113 25.3407 533.113 26.8763V75.8339C533.113 77.3695 532.766 78.7545 532.074 79.989C531.381 81.1933 530.418 82.1418 529.183 82.8343C527.979 83.5268 526.609 83.8731 525.073 83.8731H524.893C523.357 83.8731 521.972 83.5268 520.738 82.8343C519.533 82.1418 518.585 81.1933 517.892 79.989C517.2 78.7545 516.854 77.3695 516.854 75.8339V26.8763Z" fill="white"/>
<path d="M489.42 26.8763C489.42 25.3407 489.766 23.9708 490.459 22.7664C491.151 21.5319 492.1 20.5684 493.304 19.8759C494.539 19.1834 495.924 18.8372 497.459 18.8372H497.64C499.176 18.8372 500.546 19.1834 501.75 19.8759C502.984 20.5684 503.948 21.5319 504.64 22.7664C505.333 23.9708 505.679 25.3407 505.679 26.8763V75.8339C505.679 77.3695 505.333 78.7545 504.64 79.989C503.948 81.1933 502.984 82.1418 501.75 82.8343C500.546 83.5268 499.176 83.8731 497.64 83.8731H497.459C495.924 83.8731 494.539 83.5268 493.304 82.8343C492.1 82.1418 491.151 81.1933 490.459 79.989C489.766 78.7545 489.42 77.3695 489.42 75.8339V26.8763Z" fill="white"/>
<path d="M480.812 56.7748C480.812 57.949 480.541 59.048 479.999 60.0717C479.457 61.0954 478.674 61.9234 477.651 62.5557C476.657 63.1579 475.498 63.459 474.173 63.459H454.165C453.292 63.459 452.555 63.7601 451.952 64.3623C451.35 64.9344 451.049 65.6419 451.049 66.485C451.049 68.3216 451.666 69.8121 452.901 70.9562C454.165 72.1004 455.912 72.6724 458.14 72.6724C460.007 72.6724 461.572 72.3111 462.837 71.5885C464.102 70.8358 465.08 69.9174 465.773 68.8335C466.465 67.7797 467.323 66.9818 468.347 66.4398C469.401 65.8678 470.485 65.5817 471.599 65.5817C472.893 65.5817 474.023 65.9129 474.986 66.5753L475.392 66.8463C476.266 67.4184 476.943 68.2012 477.425 69.1948C477.937 70.1583 478.193 71.1971 478.193 72.3111C478.193 73.666 477.816 74.9156 477.064 76.0597C475.347 78.7093 472.818 80.7869 469.476 82.2923C466.164 83.7978 462.385 84.5505 458.14 84.5505C453.262 84.5505 448.972 83.5419 445.268 81.5245C441.565 79.4771 438.704 76.6167 436.687 72.9434C434.67 69.2701 433.661 65.0096 433.661 60.1621C433.661 55.3145 434.67 51.054 436.687 47.3807C438.704 43.7074 441.565 40.862 445.268 38.8447C448.972 36.7973 453.262 35.7736 458.14 35.7736C462.686 35.7736 466.676 36.7672 470.108 38.7544C473.541 40.7416 476.175 43.3461 478.012 46.5677C479.879 49.7894 480.812 53.1767 480.812 56.7296V56.7748ZM452.043 51.8519C452.043 52.5143 452.269 53.0713 452.72 53.523C453.202 53.9445 453.834 54.1553 454.617 54.1553H461.888C462.671 54.1553 463.274 53.9596 463.695 53.5681C464.147 53.1466 464.373 52.6046 464.373 51.9422C464.373 50.3163 463.785 49.0216 462.611 48.0582C461.437 47.0645 459.946 46.5677 458.14 46.5677C456.363 46.5677 454.903 47.0495 453.759 48.013C452.615 48.9765 452.043 50.2561 452.043 51.8519Z" fill="white"/>
<path d="M425.22 75.8339C425.22 77.3695 424.874 78.7545 424.181 79.989C423.489 81.1933 422.525 82.1418 421.291 82.8343C420.086 83.5268 418.716 83.8731 417.181 83.8731H417C415.464 83.8731 414.079 83.5268 412.845 82.8343C411.641 82.1418 410.692 81.1933 410 79.989C409.307 78.7545 408.961 77.3695 408.961 75.8339V56.8199C408.961 54.1703 408.434 52.1379 407.38 50.7228C406.356 49.2776 404.896 48.555 402.999 48.555C401.765 48.555 400.59 48.8711 399.476 49.5034C398.362 50.1357 397.429 51.1895 396.676 52.6649C395.954 54.1402 395.592 56.0521 395.592 58.4007V75.8339C395.592 77.3695 395.246 78.7545 394.554 79.989C393.861 81.1933 392.898 82.1418 391.663 82.8343C390.459 83.5268 389.089 83.8731 387.553 83.8731H387.373C385.837 83.8731 384.452 83.5268 383.217 82.8343C382.013 82.1418 381.065 81.1933 380.372 79.989C379.68 78.7545 379.333 77.3695 379.333 75.8339V26.8763C379.333 25.3407 379.68 23.9708 380.372 22.7664C381.065 21.5319 382.013 20.5684 383.217 19.8759C384.452 19.1834 385.837 18.8372 387.373 18.8372H387.553C389.089 18.8372 390.459 19.1834 391.663 19.8759C392.898 20.5684 393.861 21.5319 394.554 22.7664C395.246 23.9708 395.592 25.3407 395.592 26.8763V33.4251C395.592 34.6595 396.014 35.7134 396.857 36.5865C397.7 37.4296 398.754 37.8511 400.018 37.8511C400.53 37.8511 401.012 37.806 401.464 37.7156C401.915 37.6253 402.487 37.4748 403.18 37.264C404.324 36.9629 405.363 36.7371 406.296 36.5865C407.23 36.4059 408.389 36.3156 409.774 36.3156C413.176 36.3156 416.037 37.0532 418.355 38.5286C420.673 40.0039 422.39 41.9761 423.504 44.445C424.648 46.8839 425.22 49.5636 425.22 52.4842V75.8339Z" fill="white"/>
<path d="M348.767 35.7736C352.229 35.7736 355.3 36.2704 357.98 37.264C360.66 38.2576 362.828 39.5222 364.484 41.0578C366.17 42.5632 367.314 44.1138 367.916 45.7096C368.187 46.4323 368.322 47.1549 368.322 47.8775C368.322 49.1421 367.976 50.3163 367.284 51.4003C366.591 52.4842 365.658 53.252 364.484 53.7036L364.258 53.794C363.535 54.0649 362.828 54.2004 362.135 54.2004C360.931 54.2004 359.787 53.8391 358.703 53.1165C357.649 52.3939 356.821 51.4153 356.219 50.1809C355.707 49.0969 354.743 48.2539 353.328 47.6517C351.943 47.0194 350.392 46.7032 348.676 46.7032C346.99 46.7032 345.62 46.9893 344.566 47.5613C343.513 48.1334 342.986 48.8711 342.986 49.7744C342.986 50.5572 343.257 51.2046 343.799 51.7164C344.371 52.2283 345.274 52.6197 346.508 52.8907L355.902 54.9682C360.991 56.0823 364.694 57.7684 367.013 60.0266C369.361 62.2848 370.536 65.3107 370.536 69.1045C370.536 72.6273 369.542 75.5479 367.555 77.8663C365.567 80.1546 362.948 81.8407 359.696 82.9246C356.475 83.9784 352.922 84.5053 349.038 84.5053C345.485 84.5053 342.263 83.9483 339.372 82.8343C336.512 81.7202 334.149 80.275 332.282 78.4986C330.415 76.7221 329.12 74.8553 328.398 72.8982C328.157 72.2961 328.036 71.6036 328.036 70.8207C328.036 69.526 328.413 68.3367 329.165 67.2528C329.918 66.1688 330.912 65.4161 332.146 64.9946L332.282 64.9494C332.914 64.7387 333.576 64.6333 334.269 64.6333C335.594 64.6333 336.798 65.0096 337.882 65.7624C338.996 66.5151 339.779 67.5238 340.231 68.7883C340.803 70.3239 341.947 71.4982 343.663 72.3111C345.409 73.094 347.201 73.4854 349.038 73.4854C350.995 73.4854 352.59 73.1542 353.825 72.4918C355.089 71.8294 355.722 70.8809 355.722 69.6465C355.722 67.9001 354.261 66.7108 351.341 66.0785L342.534 64.1816C337.957 63.188 334.45 61.6224 332.011 59.4846C329.572 57.3167 328.353 54.351 328.353 50.5873C328.353 47.5463 329.241 44.9117 331.017 42.6837C332.794 40.4255 335.217 38.7092 338.289 37.535C341.39 36.3607 344.882 35.7736 348.767 35.7736Z" fill="white"/>
<path d="M317.261 36.722C318.586 36.722 319.791 37.0382 320.874 37.6705C321.958 38.2727 322.816 39.1157 323.449 40.1996C324.081 41.2836 324.397 42.503 324.397 43.8579V44.6257C324.397 45.9806 324.081 47.2 323.449 48.284C322.816 49.3679 321.943 50.211 320.829 50.8131C319.745 51.4153 318.556 51.7164 317.261 51.7164H316.629C313.016 51.7164 310.291 52.8907 308.454 55.2392C306.618 57.5576 305.699 60.6438 305.699 64.4978V75.8339C305.699 77.3695 305.353 78.7545 304.661 79.989C303.968 81.1933 303.005 82.1418 301.77 82.8343C300.566 83.5268 299.196 83.873 297.66 83.873H297.48C295.944 83.873 294.559 83.5268 293.325 82.8343C292.12 82.1418 291.172 81.1933 290.479 79.989C289.787 78.7545 289.44 77.3695 289.44 75.8339V44.7612C289.44 43.2256 289.787 41.8556 290.479 40.6513C291.172 39.4168 292.12 38.4533 293.325 37.7608C294.559 37.0683 295.944 36.722 297.48 36.722H297.705C298.789 36.722 299.738 36.8575 300.551 37.1285C301.364 37.3995 302.207 37.7759 303.08 38.2576L303.486 38.4834C304.239 38.8748 305.082 39.0705 306.016 39.0705C307.039 39.0705 307.882 38.8899 308.545 38.5286C309.93 37.9565 311.224 37.5199 312.429 37.2188C313.633 36.8876 315.003 36.722 316.539 36.722H317.261Z" fill="white"/>
<path d="M248.427 84.0085C245.115 84.0085 242.285 83.3311 239.937 81.9762C237.618 80.5911 235.872 78.6792 234.698 76.2404C233.523 73.7714 232.936 70.9562 232.936 67.7947V44.4902C232.936 42.9546 233.283 41.5847 233.975 40.3803C234.668 39.1458 235.616 38.1823 236.82 37.4898C238.055 36.7973 239.44 36.451 240.975 36.451H241.156C242.692 36.451 244.062 36.7973 245.266 37.4898C246.5 38.1823 247.464 39.1458 248.156 40.3803C248.849 41.5847 249.195 42.9546 249.195 44.4902V63.73C249.195 66.2893 249.707 68.2765 250.731 69.6916C251.755 71.0766 253.215 71.7691 255.112 71.7691C256.346 71.7691 257.52 71.453 258.634 70.8207C259.749 70.1884 260.667 69.1496 261.389 67.7044C262.142 66.229 262.519 64.3171 262.519 61.9686V44.4902C262.519 42.9546 262.865 41.5847 263.557 40.3803C264.25 39.1458 265.198 38.1823 266.403 37.4898C267.637 36.7973 269.022 36.451 270.558 36.451H270.738C272.274 36.451 273.644 36.7973 274.848 37.4898C276.083 38.1823 277.046 39.1458 277.739 40.3803C278.431 41.5847 278.778 42.9546 278.778 44.4902V75.5629C278.778 77.0684 278.416 78.4383 277.694 79.6728C277.001 80.9073 276.038 81.8708 274.803 82.5633C273.569 83.2558 272.199 83.6021 270.693 83.6021H270.603C269.639 83.6021 268.796 83.5117 268.074 83.3311C267.351 83.1504 266.719 82.9698 266.177 82.7891C265.665 82.5783 265.334 82.4429 265.183 82.3826L264.235 82.0213C263.301 81.6299 262.368 81.4342 261.435 81.4342C260.682 81.4342 259.899 81.5697 259.086 81.8407C257.219 82.5633 255.488 83.1053 253.892 83.4666C252.297 83.8279 250.475 84.0085 248.427 84.0085Z" fill="white"/>
<path d="M222.688 75.8339C222.688 77.3695 222.342 78.7545 221.65 79.989C220.957 81.1933 219.994 82.1418 218.759 82.8343C217.555 83.5268 216.185 83.8731 214.649 83.8731H214.469C212.933 83.8731 211.548 83.5268 210.313 82.8343C209.109 82.1418 208.161 81.1933 207.468 79.989C206.776 78.7545 206.429 77.3695 206.429 75.8339V56.8199C206.429 54.1703 205.902 52.1379 204.849 50.7228C203.825 49.2776 202.365 48.555 200.468 48.555C199.233 48.555 198.059 48.8711 196.945 49.5034C195.831 50.1357 194.898 51.1895 194.145 52.6649C193.422 54.1402 193.061 56.0521 193.061 58.4007V75.8339C193.061 77.3695 192.715 78.7545 192.022 79.989C191.33 81.1933 190.366 82.1418 189.132 82.8343C187.927 83.5268 186.557 83.8731 185.022 83.8731H184.841C183.305 83.8731 181.92 83.5268 180.686 82.8343C179.482 82.1418 178.533 81.1933 177.841 79.989C177.148 78.7545 176.802 77.3695 176.802 75.8339V26.8763C176.802 25.3407 177.148 23.9708 177.841 22.7664C178.533 21.5319 179.482 20.5684 180.686 19.8759C181.92 19.1834 183.305 18.8372 184.841 18.8372H185.022C186.557 18.8372 187.927 19.1834 189.132 19.8759C190.366 20.5684 191.33 21.5319 192.022 22.7664C192.715 23.9708 193.061 25.3407 193.061 26.8763V33.4251C193.061 34.6595 193.482 35.7134 194.325 36.5865C195.169 37.4296 196.222 37.8511 197.487 37.8511C197.999 37.8511 198.481 37.806 198.932 37.7156C199.384 37.6253 199.956 37.4748 200.648 37.264C201.793 36.9629 202.831 36.7371 203.765 36.5865C204.698 36.4059 205.857 36.3156 207.242 36.3156C210.645 36.3156 213.505 37.0532 215.823 38.5286C218.142 40.0039 219.858 41.9761 220.972 44.445C222.116 46.8839 222.688 49.5636 222.688 52.4842V75.8339Z" fill="white"/>
<path d="M117.623 27.7344C117.623 26.1688 117.969 24.7687 118.662 23.5342C119.385 22.2696 120.363 21.2911 121.598 20.5986C122.862 19.8759 124.277 19.5146 125.843 19.5146H146.483C150.999 19.5146 154.959 20.3426 158.361 21.9986C161.763 23.6245 164.383 26.0182 166.219 29.1797C168.086 32.311 169.02 36.0897 169.02 40.5158C169.02 45.0021 168.086 48.856 166.219 52.0777C164.383 55.2693 161.778 57.7081 158.406 59.3943C155.034 61.0804 151.09 61.9234 146.573 61.9234H139.573C138.007 61.9234 136.697 62.4353 135.644 63.459C134.62 64.4827 134.108 65.7925 134.108 67.3883V75.6532C134.108 77.2189 133.747 78.6341 133.024 79.8986C132.332 81.1331 131.353 82.1117 130.088 82.8343C128.854 83.5268 127.454 83.8731 125.888 83.8731H125.843C124.277 83.8731 122.862 83.5268 121.598 82.8343C120.363 82.1117 119.385 81.1331 118.662 79.8986C117.969 78.6341 117.623 77.2189 117.623 75.6532V27.7344ZM133.882 43.1353C133.882 44.701 134.394 46.0107 135.418 47.0645C136.472 48.0883 137.781 48.6001 139.347 48.6001H144.044C146.633 48.6001 148.636 47.8775 150.051 46.4323C151.466 44.9569 152.173 42.8794 152.173 40.1996C152.173 37.7307 151.451 35.8489 150.006 34.5542C148.56 33.2294 146.498 32.567 143.818 32.567H139.347C137.781 32.567 136.472 33.0788 135.418 34.1025C134.394 35.1262 133.882 36.436 133.882 38.0318V43.1353Z" fill="white"/>
<path d="M74.7168 0.182129C82.0528 0.182129 87.9998 6.13693 87.9998 13.4825V53.3838C87.9998 60.7294 82.0528 66.6842 74.7168 66.6842H49.8112C43.3922 66.6842 38.1886 71.8947 38.1886 78.3221V86.6348C38.1886 93.9804 32.2416 99.9352 24.9056 99.9352H13.283C5.947 99.9352 2.1397e-07 93.9804 0 86.6348V73.3344C0 65.9888 5.947 60.034 13.283 60.034H16.6037C23.0227 60.034 28.2264 54.8235 28.2264 48.3961V13.4825C28.2264 6.13693 34.1734 0.182129 41.5093 0.182129H74.7168Z" fill="#FF5100"/>
</g>
<defs>
<clipPath id="clip0_908_1088">
<rect width="533" height="100" fill="white"/>
</clipPath>
</defs>
</svg>
