<svg width="88" height="100" viewBox="0 0 88 100" fill="none" xmlns="http://www.w3.org/2000/svg">
<g clip-path="url(#clip0_912_17)">
<path d="M74.7168 0.182129C82.0528 0.182129 87.9998 6.13693 87.9998 13.4825V53.3838C87.9998 60.7294 82.0528 66.6842 74.7168 66.6842H49.8112C43.3922 66.6842 38.1886 71.8947 38.1886 78.3221V86.6348C38.1886 93.9804 32.2416 99.9352 24.9056 99.9352H13.283C5.947 99.9352 2.1397e-07 93.9804 0 86.6348V73.3344C0 65.9888 5.947 60.034 13.283 60.034H16.6037C23.0227 60.034 28.2264 54.8235 28.2264 48.3961V13.4825C28.2264 6.13693 34.1734 0.182129 41.5093 0.182129H74.7168Z" fill="#FF5100"/>
</g>
<defs>
<clipPath id="clip0_912_17">
<rect width="88" height="100" fill="white"/>
</clipPath>
</defs>
</svg>
